<svg xmlns="http://www.w3.org/2000/svg"
shape-rendering="geometricPrecision"
width="4000" height="4000" viewBox="0 0 1024 1024">
  <metadata>null</metadata>

<path d="
M 146.329 705.001
C 155.196 684.364 163.327 663.409 172.203 642.775
C 174.581 637.249 176.745 631.629 179.138 626.112
C 179.957 624.224 180.679 620.865 182.325 619.583
C 186.374 619.81 190.481 619.67 194.541 619.712
C 195.812 619.726 198.025 619.279 199.127 619.831
C 203.232 626.778 205.344 635.208 208.412 642.65
C 214.024 656.262 219.782 669.836 225.26 683.501
C 227.527 689.154 229.96 694.754 232.095 700.456
C 232.641 701.913 234.612 704.633 234.401 706.186
C 228.18 706.559 221.919 705.98 215.698 706.2
C 213.392 702.382 212.07 697.639 210.589 693.448
C 209.963 691.677 209.436 689.162 208.161 687.756
C 196.061 687.031 183.509 687.266 171.397 687.737
C 169.234 693.731 167.736 700.386 165.103 706.162
C 164.044 706.813 161.269 706.224 159.996 706.222
C 155.379 706.214 150.765 706.328 146.149 706.197
C 146.151 705.371 146.088 705.769 146.329 705.001 Z
M 177.955 672.192
C 177.927 672.318 177.9 672.444 177.872 672.569
C 186.071 672.579 194.567 673.216 202.731 672.612
C 200.634 665.239 197.159 657.91 194.298 650.796
C 193.196 648.056 192.219 645.27 191.002 642.578
C 190.897 642.347 190.082 640.279 189.92 640.316
C 189.629 640.384 189.747 640.887 189.66 641.172
C 188.52 646.274 185.716 651.405 183.909 656.334
C 182.626 659.834 181.215 663.291 179.954 666.798
C 179.322 668.556 178.883 670.572 177.955 672.192 Z"
opacity="1" fill="rgb(14,30,70)" fill-rule="evenodd" />
<path d="
M 240.222 640.719
C 241.853 640.096 243.787 640.411 245.51 640.41
C 249.17 640.406 252.837 640.341 256.492 640.531
C 256.674 643.712 256.168 647.36 256.893 650.468
C 258.129 649.541 259.008 647.897 260.146 646.8
C 263.573 643.5 267.685 640.654 272.478 639.88
C 277.531 639.065 282.73 639.586 287.459 641.628
C 307.368 650.228 311.12 676.568 300.635 693.736
C 293.981 704.629 281.165 711.577 268.618 706.503
C 264.385 704.791 261.157 702.059 258.034 698.816
C 257.727 698.577 257.428 697.872 257.112 698.1
C 257.006 698.176 257.165 699.62 257.151 700.029
C 257.088 701.848 257.081 703.669 257.072 705.492
C 257.046 710.5 256.948 715.506 256.941 720.514
C 256.937 723.084 257.303 725.89 256.943 728.429
C 251.478 728.383 245.976 728.551 240.517 728.405
C 240.043 724.839 240.338 721.098 240.279 717.505
C 240.136 708.841 240.266 700.17 240.263 691.504
C 240.259 680.004 240.263 668.505 240.271 657.005
C 240.275 651.6 239.877 646.11 240.222 640.719 Z
M 256.469 669.614
C 255.715 676.429 257.058 683.893 262.456 688.626
C 269.208 694.544 279.521 693.589 285.181 686.725
C 287.568 683.83 288.713 680.151 289.134 676.477
C 289.892 669.861 288.578 662.282 283.119 657.867
C 272.714 649.452 257.888 656.778 256.469 669.614 Z"
opacity="1" fill="rgb(15,32,71)" fill-rule="evenodd" />
<path d="
M 460.369 313.974
C 464.257 315.566 468.173 317.105 471.944 319.005
C 474.663 320.374 477.2 322.153 479.939 323.458
C 486.996 326.957 493.243 332.744 499.062 337.951
C 502.543 341.701 505.854 345.471 508.885 349.602
C 510.185 351.374 511.532 354.3 513.27 355.593
C 514.358 358.27 516.522 360.44 517.437 363.238
C 518.464 366.146 520.97 368.28 521.948 371.049
C 522.99 374.881 525.376 378.236 526.401 382.05
C 527.899 386.501 528.176 391.484 529.923 395.785
C 530.2 396.675 530.323 397.594 530.424 398.518
C 532.026 408.255 532.415 418.627 531.557 428.463
C 531.222 432.301 530.489 436.099 530.132 439.933
C 529.856 440.764 529.611 441.578 529.537 442.45
C 528.743 446.126 527.25 449.671 526.289 453.312
C 526.072 454.083 525.761 454.814 525.412 455.533
C 524.171 458.874 522.297 462.144 521.354 465.574
C 521.444 466.84 522.538 468.058 523.218 469.092
C 525.326 472.296 528.913 474.618 529.995 478.462
C 531.478 483.731 530.33 490.317 530.288 495.741
C 530.27 498.168 530.105 500.699 531.022 502.988
C 528.154 500.398 524.03 498.811 520.3 500.698
C 518.778 501.468 517.498 502.935 516.248 504.07
C 513.358 506.692 510.559 509.385 507.773 512.117
C 504.098 515.722 499.665 520.442 503.48 525.828
C 502.41 526.075 501.599 526.981 500.68 527.553
C 499.126 528.519 497.412 529.278 495.722 529.969
C 489.031 532.704 481.471 533.719 474.291 533.037
C 468.666 532.504 463.097 531.046 457.905 528.836
C 456.334 528.167 454.739 527.49 453.24 526.667
C 452.247 526.121 451.25 525.251 450.056 525.306
C 446.588 525.468 442.856 526.957 439.397 527.521
C 431.97 528.732 424.308 529.006 416.798 528.694
C 387.382 527.472 358.209 513.07 339.24 490.576
C 307.955 453.479 304.328 399.364 329.436 358.014
C 334.125 350.292 340.09 343.316 346.598 337.082
C 353.492 330.477 361.601 324.459 370.081 320.036
C 390.325 309.475 413.324 305.254 436.003 308.027
C 444.477 309.063 452.227 311.726 460.369 313.974 Z
M 336.586 423.494
C 336.42 426.082 337.108 429.11 337.555 431.673
C 338.517 437.196 339.861 442.502 341.716 447.795
C 350.674 473.365 373.121 493.193 398.926 500.754
C 409.775 503.933 421.728 504.681 432.952 503.516
C 470.706 499.596 501.657 468.414 507.7 431.372
C 509.086 422.875 508.687 413.986 507.373 405.515
C 505.026 390.379 498.893 376.347 489.457 364.29
C 478.552 350.355 463.338 340.199 446.538 334.849
C 445.731 334.14 446.279 331.091 446.28 330.004
C 446.286 325.546 446.319 321.091 446.219 316.638
C 443.259 315.25 439.37 315.041 436.165 314.525
C 426.374 312.948 416.039 313.118 406.257 314.649
C 367.457 320.72 335.42 348.768 323.967 386.259
C 321.645 393.861 320.086 401.869 319.664 409.813
C 319.528 412.366 318.97 415.436 319.436 417.945
C 324.638 421.094 330.76 422.174 336.586 423.494 Z
M 472.688 517.178
C 478.825 519.101 487.217 517.489 492.57 514.187
C 493.863 513.39 497.281 511.314 497.443 509.604
C 497.491 509.106 496.722 508.383 496.444 508.035
C 495.327 506.638 493.998 504.999 492.634 503.855
C 489.219 508.115 483.157 511.156 478.482 513.805
C 476.676 514.829 474.037 515.608 472.688 517.178 Z
M 512.487 491.123
C 512.392 492.324 512.04 493.773 512.608 494.886
C 514.307 496.581 516.172 498.24 517.738 500.058
C 517.944 499.737 517.705 498.676 517.702 498.308
C 517.688 496.537 517.701 494.773 517.751 493.002
C 517.884 488.33 517.786 483.675 517.822 479.005
C 517.837 477.082 518.275 474.869 518.017 472.984
C 516.74 474.758 515.702 476.778 514.57 478.657
C 513.953 479.681 513.069 480.747 512.776 481.925
C 512.052 484.841 512.902 488.138 512.487 491.123 Z"
opacity="1" fill="rgb(10,44,68)" fill-rule="evenodd" />
<path d="
M 315.992 706.117
C 316.822 697.9 316.176 689.266 316.148 681.009
C 316.102 667.545 316.325 654.087 316.479 640.63
C 317.728 639.912 319.595 640.279 321.005 640.278
C 324.913 640.275 328.944 640.057 332.823 640.584
C 333.556 643.505 332.364 647.074 333.398 649.925
C 334.928 648.906 336.192 646.921 337.573 645.642
C 340.917 642.545 345.068 640.464 349.539 639.635
C 353.553 638.891 357.833 639.291 361.679 640.624
C 380.442 647.126 386.529 669.394 380.306 686.834
C 375.94 699.07 363.843 709.937 350.076 707.919
C 345.649 707.27 341.365 705.236 337.861 702.474
C 336.067 701.06 334.72 699.22 332.863 697.919
C 333.071 704.927 332.882 711.989 332.862 719.003
C 332.854 722.052 332.488 725.336 332.86 728.357
C 327.413 728.203 321.937 728.305 316.489 728.391
C 315.526 727.579 316.097 723.796 316.07 722.505
C 315.956 717.057 315.721 711.568 315.992 706.117 Z
M 332.461 669.617
C 331.777 676.919 333.564 684.605 339.63 689.303
C 345.362 693.743 353.964 693.65 359.455 688.727
C 363.011 685.538 365.058 680.676 365.494 675.989
C 366.184 668.558 363.62 660.152 356.896 656.179
C 346.678 650.14 333.513 658.385 332.461 669.617 Z"
opacity="1" fill="rgb(15,32,70)" fill-rule="evenodd" />
<path d="
M 446.538 334.849
C 438.068 331.622 428.019 331.177 419.068 331.616
C 412.513 331.937 405.882 332.672 399.545 334.47
C 372.142 342.248 350.803 363.182 341.312 389.872
C 338.452 397.912 336.902 406.46 336.571 414.98
C 336.464 417.722 336.054 420.787 336.586 423.494
C 330.76 422.174 324.638 421.094 319.436 417.945
C 318.97 415.436 319.528 412.366 319.664 409.813
C 320.086 401.869 321.645 393.861 323.967 386.259
C 335.42 348.768 367.457 320.72 406.257 314.649
C 416.039 313.118 426.374 312.948 436.165 314.525
C 439.37 315.041 443.259 315.25 446.219 316.638
C 446.319 321.091 446.286 325.546 446.28 330.004
C 446.279 331.091 445.731 334.14 446.538 334.849 Z"
opacity="1" fill="rgb(103,151,146)" fill-rule="evenodd" />
<path d="
M 432.998 336.841
C 431.452 338.199 430.389 340.32 429.256 342.027
C 428.597 343.117 428.109 343.977 427.715 345.176
C 427.589 345.265 427.462 345.354 427.336 345.443
C 427.181 344.335 425.801 344.402 424.892 344.369
C 422.45 344.28 419.763 344.152 417.342 344.479
C 414.409 344.875 411.454 344.9 408.521 345.386
C 400.931 346.642 393.767 349.115 386.797 352.322
C 373.218 358.569 362.601 368.984 354.957 381.605
C 351.959 386.555 349.573 391.004 347.929 396.604
C 347.389 398.441 347.129 400.329 346.649 402.18
C 346.437 402.998 345.781 404.091 345.796 404.922
C 345.814 405.922 346.451 407.04 346.443 408.193
C 346.429 410.397 345.649 412.427 345.404 414.593
C 345.277 415.71 345.675 416.939 345.377 418.023
C 345.049 419.214 344.416 417.163 343.996 417.593
C 343.601 417.997 343.858 418.748 343.432 419.253
C 342.395 420.485 341.618 420.271 341.223 422.015
C 340.14 387.141 362.164 352.296 395.723 340.813
C 403.792 338.051 412.66 336.37 421.202 336.19
C 424.16 336.128 427.15 336.237 430.104 336.397
C 431.072 336.449 432.063 336.893 432.998 336.841 Z"
opacity="1" fill="rgb(200,201,203)" fill-rule="evenodd" />
<path d="
M 341.223 422.015
C 341.618 420.271 342.395 420.485 343.432 419.253
C 343.858 418.748 343.601 417.997 343.996 417.593
C 344.416 417.163 345.049 419.214 345.377 418.023
C 345.675 416.939 345.277 415.71 345.404 414.593
C 345.649 412.427 346.429 410.397 346.443 408.193
C 346.451 407.04 345.814 405.922 345.796 404.922
C 345.781 404.091 346.437 402.998 346.649 402.18
C 347.129 400.329 347.389 398.441 347.929 396.604
C 349.573 391.004 351.959 386.555 354.957 381.605
C 362.601 368.984 373.218 358.569 386.797 352.322
C 393.767 349.115 400.931 346.642 408.521 345.386
C 411.454 344.9 414.409 344.875 417.342 344.479
C 419.763 344.152 422.45 344.28 424.892 344.369
C 425.801 344.402 427.181 344.335 427.336 345.443
C 426.384 347.9 425.556 351.719 423.673 353.582
C 420.423 354.501 417 354.224 413.814 355.504
C 407.247 358.141 401.036 362.854 397.427 369.001
C 396.527 370.533 396.221 372.14 395.515 373.708
C 394.836 375.217 393.521 376.387 392.792 377.881
C 392.301 378.261 391.755 378.109 391.168 378.045
C 388.112 378.992 385.715 382.681 383.741 385.033
C 380.262 389.177 377.044 393.371 374.043 397.891
C 372.192 400.68 370.638 403.866 368.084 406.018
C 365.72 408.009 363.641 410.565 363.493 413.714
C 363.427 415.124 363.163 416.466 364.175 417.699
C 364.861 418.536 365.115 419.378 365.767 418.389
C 362.986 424.595 361.068 431.103 360.86 437.952
C 360.192 459.96 374.861 479.741 395.816 486.199
C 402.442 488.241 409.399 488.935 416.312 488.692
C 418.257 488.623 420.208 488.513 422.147 488.35
C 422.789 488.296 423.881 488.022 424.338 488.502
C 425.785 491.135 426.545 494.073 428.114 496.677
C 428.58 497.45 429.123 498.732 429.993 499.075
C 416.423 499.775 403.131 497.74 390.533 492.512
C 362.705 480.963 342.344 452.067 341.223 422.015 Z"
opacity="1" fill="rgb(220,221,222)" fill-rule="evenodd" />
<path d="
M 365.767 418.389
C 369.02 411.381 374.662 405.568 380.88 401.149
C 383.375 399.376 386.659 398.255 388.943 396.285
C 389.364 394.32 389.106 392.012 389.352 389.982
C 389.724 386.913 390.641 383.998 391.291 380.997
C 391.627 379.887 392.224 378.885 392.792 377.881
C 393.521 376.387 394.836 375.217 395.515 373.708
C 396.221 372.14 396.527 370.533 397.427 369.001
C 401.036 362.854 407.247 358.141 413.814 355.504
C 417 354.224 420.423 354.501 423.673 353.582
C 425.556 351.719 426.384 347.9 427.336 345.443
C 427.462 345.354 427.589 345.265 427.715 345.176
C 428.871 345.038 430.078 345.354 431.221 345.569
C 435.393 346.351 441.846 348.272 440.777 353.897
C 440.406 355.321 439.459 359.233 437.986 359.792
C 431.947 359.934 425.917 359.47 419.882 359.34
C 413.076 359.194 407.411 359.226 402.237 364.279
C 400.458 366.017 398.469 368.543 397.859 371.012
C 397.369 372.997 397.717 375.242 397.706 377.259
C 397.684 381.155 397.693 385.066 397.567 388.96
C 397.118 402.829 397.622 416.721 397.427 430.592
C 397.382 433.795 396.758 436.938 396.722 440.146
C 396.625 448.687 398.379 456.955 403.922 463.677
C 408.741 469.521 416.081 473.26 423.596 473.873
C 426.274 474.092 428.946 474.069 431.631 474.091
C 432.834 474.1 434.413 473.865 435.528 474.302
C 437.054 476.619 439.247 480.099 438.922 483.005
C 438.718 483.685 438.277 484.208 438.061 484.872
C 437.153 488.282 440.134 489.391 442.479 491.054
C 442.72 491.504 442.938 491.779 443.333 492.101
C 443.877 493.165 444.982 494.908 445.967 495.581
C 445.917 496.439 442.819 496.788 442.093 496.97
C 438.081 497.973 434.063 498.444 429.993 499.075
C 429.123 498.732 428.58 497.45 428.114 496.677
C 426.545 494.073 425.785 491.135 424.338 488.502
C 423.881 488.022 422.789 488.296 422.147 488.35
C 420.208 488.513 418.257 488.623 416.312 488.692
C 409.399 488.935 402.442 488.241 395.816 486.199
C 374.861 479.741 360.192 459.96 360.86 437.952
C 361.068 431.103 362.986 424.595 365.767 418.389 Z"
opacity="1" fill="rgb(20,75,82)" fill-rule="evenodd" />
<path d="
M 392.792 377.881
C 392.224 378.885 391.627 379.887 391.291 380.997
C 390.641 383.998 389.724 386.913 389.352 389.982
C 389.106 392.012 389.364 394.32 388.943 396.285
C 386.659 398.255 383.375 399.376 380.88 401.149
C 374.662 405.568 369.02 411.381 365.767 418.389
C 365.115 419.378 364.861 418.536 364.175 417.699
C 363.163 416.466 363.427 415.124 363.493 413.714
C 363.641 410.565 365.72 408.009 368.084 406.018
C 370.638 403.866 372.192 400.68 374.043 397.891
C 377.044 393.371 380.262 389.177 383.741 385.033
C 385.715 382.681 388.112 378.992 391.168 378.045
C 391.755 378.109 392.301 378.261 392.792 377.881 Z"
opacity="1" fill="rgb(227,227,228)" fill-rule="evenodd" />
<path d="
M 393.86 615.794
C 395.808 615.298 398.005 615.556 400.004 615.542
C 403.621 615.518 407.245 615.48 410.86 615.607
C 411.656 618.061 410.967 621.911 410.972 624.514
C 410.985 630.985 411.026 637.453 410.938 643.916
C 410.749 657.774 410.85 671.654 410.935 685.514
C 410.976 692.294 410.487 699.247 410.963 706.006
C 410.626 706.556 407.72 706.233 406.997 706.251
C 402.739 706.359 398.475 706.278 394.217 706.264
C 393.32 705.268 393.944 701.713 393.924 700.372
C 393.838 694.582 393.793 688.795 393.812 683.003
C 393.883 660.64 394.614 638.144 393.86 615.794 Z"
opacity="1" fill="rgb(14,31,68)" fill-rule="evenodd" />
<path d="
M 437.986 359.792
C 438.094 360.693 438.013 361.55 438.598 362.304
C 438.671 362.397 439.187 363.116 439.35 362.877
C 439.809 362.208 439.641 360.858 439.889 360.07
C 440.587 357.862 441.462 355.729 442.168 353.526
C 442.438 352.685 443.131 351.389 442.192 350.814
C 443.348 347.002 446.321 343.608 448.6 340.429
C 454.399 343.294 460.463 345.4 465.894 349
C 481.488 359.338 493.961 375.667 499.61 393.469
C 501.101 398.168 502.637 402.995 502.827 407.97
C 502.882 408.337 502.743 408.525 502.666 408.934
C 502.362 410.809 501.682 412.61 501.413 414.526
C 500.86 418.472 500.847 422.569 500.886 426.547
C 500.91 429.031 500.776 431.531 500.966 434.01
C 501.074 435.417 501.564 437.181 501.308 438.563
C 498.666 447.549 495.25 456.546 489.335 463.935
C 490.437 461.912 489.516 457.994 489.498 455.547
C 489.471 451.85 490.74 446.325 488.526 443.049
C 487.039 440.847 484.386 440.72 481.998 440.694
C 476.669 440.637 471.337 440.893 466.006 440.83
C 462.512 440.789 459.022 440.78 455.528 440.81
C 453.341 440.829 451.164 440.864 449.473 442.472
C 447.659 444.196 447.89 446.792 447.83 449.076
C 447.705 453.88 447.854 458.692 447.88 463.498
C 447.897 466.584 447.684 469.667 447.69 472.753
C 447.692 474.025 447.506 475.753 447.981 476.953
C 448.305 477.77 449.067 478.113 449.64 478.7
C 448.95 478.71 448.307 478.859 447.625 478.933
C 446.403 479.679 445.353 480.667 444.082 481.398
C 442.777 482.148 441.189 482.611 440.015 483.559
C 439.324 484.118 439.24 484.7 439.385 485.527
C 439.051 485.049 438.615 485.012 438.061 484.872
C 438.277 484.208 438.718 483.685 438.922 483.005
C 439.247 480.099 437.054 476.619 435.528 474.302
C 434.413 473.865 432.834 474.1 431.631 474.091
C 428.946 474.069 426.274 474.092 423.596 473.873
C 416.081 473.26 408.741 469.521 403.922 463.677
C 398.379 456.955 396.625 448.687 396.722 440.146
C 396.758 436.938 397.382 433.795 397.427 430.592
C 397.622 416.721 397.118 402.829 397.567 388.96
C 397.693 385.066 397.684 381.155 397.706 377.259
C 397.717 375.242 397.369 372.997 397.859 371.012
C 398.469 368.543 400.458 366.017 402.237 364.279
C 407.411 359.226 413.076 359.194 419.882 359.34
C 425.917 359.47 431.947 359.934 437.986 359.792 Z
M 406.912 388.493
C 408.105 383.017 406.27 374.577 412.463 371.659
C 416.888 369.575 422.85 369.622 427.629 369.748
C 429.21 369.79 432.903 370.792 434.193 369.784
C 434.619 369.451 434.706 368.68 434.971 368.229
C 435.808 368.071 436.623 367.864 437.473 367.775
C 441.979 367.607 446.702 367.468 451.197 367.835
C 451.664 368.801 451.301 370.725 451.278 371.786
C 451.212 374.858 451.265 377.928 451.163 381
C 451.111 382.587 450.784 384.699 452.016 385.949
C 453.224 387.176 455.461 386.667 457.008 386.7
C 459.84 386.76 462.673 386.709 465.505 386.747
C 466.961 386.767 468.678 386.57 470.059 387.074
C 470.132 398.213 470.124 409.367 470.189 420.512
C 470.218 425.549 469.256 431.668 470.48 436.567
C 471.401 436.729 472.651 437.011 473.501 436.478
C 473.946 435.224 473.64 433.548 473.639 432.239
C 473.635 429.488 473.615 426.738 473.602 423.987
C 473.557 414.825 473.75 405.655 473.762 396.492
C 473.767 393.435 473.849 390.372 473.764 387.317
C 473.731 386.138 474.022 384.393 473.427 383.326
C 472.848 382.288 471.666 381.445 470.855 380.587
C 468.741 378.352 466.511 376.227 464.416 373.974
C 462.158 371.548 459.906 369.123 457.426 366.919
C 456.525 366.119 455.604 364.942 454.493 364.44
C 452.158 363.386 448.211 363.883 445.694 363.87
C 443.856 363.861 440.454 363.338 438.878 364.377
C 429.752 365.217 420.192 363.014 411.163 365.04
C 407.807 365.793 402.992 369.263 403.576 373.335
C 402.935 375.821 403.224 378.503 403.251 381.053
C 403.294 385.035 403.291 389.021 403.238 393.002
C 403.034 408.493 403.235 424.007 403.381 439.498
C 403.417 443.326 403.428 447.156 403.424 450.984
C 403.419 454.778 403.413 458.477 406.585 461.116
C 409.819 463.807 414.558 463.155 418.461 463.067
C 426.935 462.876 435.546 462.71 444.008 462.929
C 444.421 462.759 444.344 459.864 444.015 459.449
C 435.796 459.009 427.394 459.678 419.146 459.551
C 416.224 459.506 411.777 460.266 409.295 458.366
C 407.287 456.828 406.957 454.306 406.893 451.945
C 406.79 448.13 406.797 444.311 406.754 440.496
C 406.632 429.497 406.727 418.492 406.758 407.492
C 406.776 401.164 406.54 394.808 406.912 388.493 Z
M 411.424 395.602
C 411.292 396.688 411.199 398.412 412.533 398.829
C 414.494 399.442 417.446 398.812 419.508 398.821
C 424.847 398.844 430.498 399.37 435.798 398.751
C 436.679 397.932 436.232 395.77 436.102 394.724
C 435.557 390.351 433.725 387.607 430 385.361
C 430.621 382.539 431.601 380.211 430.105 377.371
C 427.928 373.237 421.485 372.252 418.691 376.318
C 417.482 378.076 416.817 380.451 417.361 382.553
C 417.599 383.474 418.841 384.421 418.8 385.328
C 414.647 386.26 412.172 391.987 411.424 395.602 Z
M 413.371 409.541
C 413.24 410.302 413.243 409.928 413.346 410.661
C 414.305 412.373 416.306 413.145 417.871 411.637
C 418.417 410.638 418.426 409.407 417.74 408.476
C 415.979 407.27 414.327 407.545 413.371 409.541 Z
M 413.359 422.082
C 413.36 422.269 413.361 422.457 413.361 422.645
C 414.154 424.423 416.175 425.157 417.716 423.755
C 418.211 422.818 418.411 421.654 417.795 420.731
C 417.077 420.058 416.436 419.863 415.462 419.754
C 414.309 420.059 413.655 420.966 413.359 422.082 Z
M 413.835 432.96
C 412.658 435.766 416.686 437.694 418.037 434.954
C 419.446 432.094 415.535 430.74 413.835 432.96 Z
M 413.766 444.964
C 413.161 447.44 415.221 448.309 417.336 447.797
C 418.264 447.114 418.209 445.914 418.023 444.89
C 417.101 443.662 415.295 443.467 414.136 444.435
C 414.013 444.612 413.889 444.788 413.766 444.964 Z
M 423.358 409.564
C 423.308 410.209 423.287 410.773 423.402 411.41
C 424.024 412 425.088 411.91 425.904 411.934
C 428.101 411.996 430.313 411.948 432.511 411.938
C 439.174 411.91 445.84 411.864 452.503 411.871
C 455.352 411.874 459.3 412.525 462.007 411.564
C 462.638 410.824 462.616 409.504 462.052 408.752
C 459.483 407.722 455.743 408.303 453.005 408.292
C 446.506 408.267 440.007 408.313 433.508 408.307
C 431.174 408.305 428.84 408.317 426.505 408.315
C 425.612 408.315 424.471 408.145 423.676 408.607
C 423.44 409.28 423.544 408.96 423.358 409.564 Z
M 423.478 421.589
C 423.346 422.267 423.377 422.799 423.775 423.371
C 424.969 424.059 426.431 423.892 427.766 423.882
C 430.013 423.864 432.262 423.946 434.51 423.943
C 440.676 423.937 446.84 423.885 453.005 423.868
C 456.043 423.86 459.282 424.24 462.294 423.821
C 462.345 422.849 462.409 421.929 462.362 420.955
C 461.485 420.253 460.194 420.438 459.12 420.425
C 457.024 420.4 454.928 420.386 452.831 420.376
C 446.224 420.347 439.614 420.255 433.007 420.303
C 430.219 420.323 426.675 419.696 424.038 420.659
C 423.55 421.227 423.733 420.915 423.478 421.589 Z
M 423.405 433.534
C 423.248 434.192 423.223 434.701 423.613 435.269
C 424.658 436.003 426.005 435.863 427.228 435.84
C 429.323 435.8 431.415 435.881 433.51 435.915
C 440.009 436.019 446.508 435.901 453.007 435.854
C 456.118 435.831 459.653 436.256 462.711 435.663
C 462.969 434.712 462.663 433.679 462.339 432.786
C 459.778 431.74 456.069 432.337 453.334 432.316
C 446.558 432.262 439.782 432.327 433.006 432.349
C 430.478 432.357 425.747 431.41 423.702 433.073
C 423.603 433.227 423.504 433.381 423.405 433.534 Z
M 423.304 444.796
C 423.123 445.771 423.027 446.735 423.155 447.722
C 427.029 448.245 431.099 447.937 435.011 447.926
C 436.641 447.922 438.927 448.369 440.458 447.881
C 440.806 446.977 440.934 446.259 440.611 445.316
C 439.406 444.038 437.393 444.406 435.782 444.416
C 431.722 444.44 427.282 443.924 423.304 444.796 Z
M 448.299 396.883
C 448.202 397.823 448.389 398.711 448.849 399.541
C 449.794 400.141 451.413 399.786 452.502 399.773
C 454.799 399.747 457.097 399.814 459.394 399.817
C 460.354 399.818 461.546 399.935 462.405 399.449
C 463.047 398.759 463.208 397.096 462.686 396.305
C 459.649 396.041 456.557 396.226 453.509 396.169
C 451.65 396.134 449.926 395.812 448.299 396.883 Z"
opacity="1" fill="rgb(218,219,220)" fill-rule="evenodd" />
<path d="
M 403.576 373.335
C 404.642 373.175 405.5 373.072 406.562 373.334
C 407.023 374.612 406.727 376.128 406.753 377.471
C 406.823 381.139 406.6 384.834 406.912 388.493
C 406.54 394.808 406.776 401.164 406.758 407.492
C 406.727 418.492 406.632 429.497 406.754 440.496
C 406.797 444.311 406.79 448.13 406.893 451.945
C 406.957 454.306 407.287 456.828 409.295 458.366
C 411.777 460.266 416.224 459.506 419.146 459.551
C 427.394 459.678 435.796 459.009 444.015 459.449
C 444.344 459.864 444.421 462.759 444.008 462.929
C 435.546 462.71 426.935 462.876 418.461 463.067
C 414.558 463.155 409.819 463.807 406.585 461.116
C 403.413 458.477 403.419 454.778 403.424 450.984
C 403.428 447.156 403.417 443.326 403.381 439.498
C 403.235 424.007 403.034 408.493 403.238 393.002
C 403.291 389.021 403.294 385.035 403.251 381.053
C 403.224 378.503 402.935 375.821 403.576 373.335 Z"
opacity="1" fill="rgb(14,131,141)" fill-rule="evenodd" />
<path d="
M 438.878 364.377
C 438.57 365.263 437.194 366.844 437.473 367.775
C 436.623 367.864 435.808 368.071 434.971 368.229
C 427.917 368.879 420.615 367.327 413.625 368.432
C 410.889 368.865 407.207 370.278 406.562 373.334
C 405.5 373.072 404.642 373.175 403.576 373.335
C 402.992 369.263 407.807 365.793 411.163 365.04
C 420.192 363.014 429.752 365.217 438.878 364.377 Z"
opacity="1" fill="rgb(74,177,149)" fill-rule="evenodd" />
<path d="
M 434.971 368.229
C 434.706 368.68 434.619 369.451 434.193 369.784
C 432.903 370.792 429.21 369.79 427.629 369.748
C 422.85 369.622 416.888 369.575 412.463 371.659
C 406.27 374.577 408.105 383.017 406.912 388.493
C 406.6 384.834 406.823 381.139 406.753 377.471
C 406.727 376.128 407.023 374.612 406.562 373.334
C 407.207 370.278 410.889 368.865 413.625 368.432
C 420.615 367.327 427.917 368.879 434.971 368.229 Z"
opacity="0.996" fill="rgb(216,215,220)" fill-rule="evenodd" />
<path d="
M 411.424 395.602
C 412.172 391.987 414.647 386.26 418.8 385.328
C 418.841 384.421 417.599 383.474 417.361 382.553
C 416.817 380.451 417.482 378.076 418.691 376.318
C 421.485 372.252 427.928 373.237 430.105 377.371
C 431.601 380.211 430.621 382.539 430 385.361
C 433.725 387.607 435.557 390.351 436.102 394.724
C 436.232 395.77 436.679 397.932 435.798 398.751
C 430.498 399.37 424.847 398.844 419.508 398.821
C 417.446 398.812 414.494 399.442 412.533 398.829
C 411.199 398.412 411.292 396.688 411.424 395.602 Z
M 414.972 394.084
C 414.7 394.856 414.8 394.466 414.666 395.252
C 420.77 395.551 427.121 395.828 433.227 395.704
C 432.828 393.037 431.049 389.577 428.599 388.292
C 427.248 387.92 425.871 388.579 424.497 388.58
C 423.157 388.58 421.918 387.982 420.595 387.921
C 418.159 388.985 416.082 391.726 414.972 394.084 Z
M 420.378 380.586
C 419.468 385.395 426.883 386.578 427.79 381.896
C 428.798 376.691 421.359 375.396 420.378 380.586 Z"
opacity="1" fill="rgb(10,117,125)" fill-rule="evenodd" />
<path d="
M 413.371 409.541
C 414.327 407.545 415.979 407.27 417.74 408.476
C 418.426 409.407 418.417 410.638 417.871 411.637
C 416.306 413.145 414.305 412.373 413.346 410.661
C 413.243 409.928 413.24 410.302 413.371 409.541 Z"
opacity="1" fill="rgb(13,120,142)" fill-rule="evenodd" />
<path d="
M 413.359 422.082
C 413.655 420.966 414.309 420.059 415.462 419.754
C 416.436 419.863 417.077 420.058 417.795 420.731
C 418.411 421.654 418.211 422.818 417.716 423.755
C 416.175 425.157 414.154 424.423 413.361 422.645
C 413.361 422.457 413.36 422.269 413.359 422.082 Z"
opacity="1" fill="rgb(30,150,164)" fill-rule="evenodd" />
<path d="
M 413.835 432.96
C 415.535 430.74 419.446 432.094 418.037 434.954
C 416.686 437.694 412.658 435.766 413.835 432.96 Z"
opacity="1" fill="rgb(13,126,145)" fill-rule="evenodd" />
<path d="
M 413.766 444.964
C 413.889 444.788 414.013 444.612 414.136 444.435
C 415.295 443.467 417.101 443.662 418.023 444.89
C 418.209 445.914 418.264 447.114 417.336 447.797
C 415.221 448.309 413.161 447.44 413.766 444.964 Z"
opacity="1" fill="rgb(13,130,149)" fill-rule="evenodd" />
<path d="
M 414.972 394.084
C 416.082 391.726 418.159 388.985 420.595 387.921
C 421.918 387.982 423.157 388.58 424.497 388.58
C 425.871 388.579 427.248 387.92 428.599 388.292
C 431.049 389.577 432.828 393.037 433.227 395.704
C 427.121 395.828 420.77 395.551 414.666 395.252
C 414.8 394.466 414.7 394.856 414.972 394.084 Z"
opacity="1" fill="rgb(213,218,219)" fill-rule="evenodd" />
<path d="
M 417.277 640.946
C 417.473 640.815 417.669 640.685 417.866 640.555
C 421.913 640.63 425.994 640.369 430.049 640.366
C 431.751 640.365 433.744 640.082 435.4 640.47
C 436.185 643.437 437.608 646.326 438.649 649.22
C 441.646 657.556 445.158 665.698 448.123 674.046
C 449.137 676.899 450.205 679.741 451.277 682.573
C 451.613 683.463 451.745 685.134 452.542 685.678
C 453.189 680.663 456.399 675.516 458.156 670.787
C 460.334 664.928 462.608 659.106 464.772 653.244
C 466.33 649.024 467.62 644.599 469.536 640.525
C 470.923 639.822 473.45 640.345 475.007 640.352
C 479.21 640.368 483.498 640.617 487.688 640.374
C 487.871 640.584 487.145 641.637 487.046 641.851
C 486.28 643.503 485.518 645.14 484.881 646.85
C 482.171 654.119 479.404 661.378 476.413 668.535
C 471.412 680.504 467.05 692.758 462.398 704.867
C 460.057 710.963 457.973 718.202 453.639 723.222
C 447.239 730.635 437.165 731.862 428.168 729.492
C 425.074 728.676 421.48 727.349 419.124 725.101
C 419.139 723.44 419.972 721.853 420.509 720.304
C 421.479 717.506 422.224 714.561 423.415 711.85
C 424.515 711.345 427.652 713.788 428.806 714.295
C 433.242 716.246 438.88 716.608 442.353 712.67
C 444.851 709.839 443.7 706.657 442.465 703.534
C 441.185 700.296 439.942 697.042 438.593 693.832
C 433.032 680.595 427.87 667.192 422.384 653.924
C 420.624 649.665 419.374 645.046 417.277 640.946 Z"
opacity="1" fill="rgb(16,32,71)" fill-rule="evenodd" />
<path d="
M 420.378 380.586
C 421.359 375.396 428.798 376.691 427.79 381.896
C 426.883 386.578 419.468 385.395 420.378 380.586 Z"
opacity="1" fill="rgb(200,205,205)" fill-rule="evenodd" />
<path d="
M 423.358 409.564
C 423.544 408.96 423.44 409.28 423.676 408.607
C 424.471 408.145 425.612 408.315 426.505 408.315
C 428.84 408.317 431.174 408.305 433.508 408.307
C 440.007 408.313 446.506 408.267 453.005 408.292
C 455.743 408.303 459.483 407.722 462.052 408.752
C 462.616 409.504 462.638 410.824 462.007 411.564
C 459.3 412.525 455.352 411.874 452.503 411.871
C 445.84 411.864 439.174 411.91 432.511 411.938
C 430.313 411.948 428.101 411.996 425.904 411.934
C 425.088 411.91 424.024 412 423.402 411.41
C 423.287 410.773 423.308 410.209 423.358 409.564 Z"
opacity="1" fill="rgb(42,160,123)" fill-rule="evenodd" />
<path d="
M 423.478 421.589
C 423.733 420.915 423.55 421.227 424.038 420.659
C 426.675 419.696 430.219 420.323 433.007 420.303
C 439.614 420.255 446.224 420.347 452.831 420.376
C 454.928 420.386 457.024 420.4 459.12 420.425
C 460.194 420.438 461.485 420.253 462.362 420.955
C 462.409 421.929 462.345 422.849 462.294 423.821
C 459.282 424.24 456.043 423.86 453.005 423.868
C 446.84 423.885 440.676 423.937 434.51 423.943
C 432.262 423.946 430.013 423.864 427.766 423.882
C 426.431 423.892 424.969 424.059 423.775 423.371
C 423.377 422.799 423.346 422.267 423.478 421.589 Z"
opacity="1" fill="rgb(43,150,115)" fill-rule="evenodd" />
<path d="
M 423.405 433.534
C 423.504 433.381 423.603 433.227 423.702 433.073
C 425.747 431.41 430.478 432.357 433.006 432.349
C 439.782 432.327 446.558 432.262 453.334 432.316
C 456.069 432.337 459.778 431.74 462.339 432.786
C 462.663 433.679 462.969 434.712 462.711 435.663
C 459.653 436.256 456.118 435.831 453.007 435.854
C 446.508 435.901 440.009 436.019 433.51 435.915
C 431.415 435.881 429.323 435.8 427.228 435.84
C 426.005 435.863 424.658 436.003 423.613 435.269
C 423.223 434.701 423.248 434.192 423.405 433.534 Z"
opacity="1" fill="rgb(42,159,125)" fill-rule="evenodd" />
<path d="
M 423.304 444.796
C 427.282 443.924 431.722 444.44 435.782 444.416
C 437.393 444.406 439.406 444.038 440.611 445.316
C 440.934 446.259 440.806 446.977 440.458 447.881
C 438.927 448.369 436.641 447.922 435.011 447.926
C 431.099 447.937 427.029 448.245 423.155 447.722
C 423.027 446.735 423.123 445.771 423.304 444.796 Z"
opacity="0.996" fill="rgb(14,142,143)" fill-rule="evenodd" />
<path d="
M 432.998 336.841
C 436.754 337.226 440.31 338.152 443.956 339.105
C 445.483 339.505 447.038 340.248 448.6 340.429
C 446.321 343.608 443.348 347.002 442.192 350.814
C 441.832 351.836 441.532 353.09 440.777 353.897
C 441.846 348.272 435.393 346.351 431.221 345.569
C 430.078 345.354 428.871 345.038 427.715 345.176
C 428.109 343.977 428.597 343.117 429.256 342.027
C 430.389 340.32 431.452 338.199 432.998 336.841 Z"
opacity="1" fill="rgb(73,158,105)" fill-rule="evenodd" />
<path d="
M 438.878 364.377
C 440.454 363.338 443.856 363.861 445.694 363.87
C 448.211 363.883 452.158 363.386 454.493 364.44
C 455.604 364.942 456.525 366.119 457.426 366.919
C 459.906 369.123 462.158 371.548 464.416 373.974
C 466.511 376.227 468.741 378.352 470.855 380.587
C 471.666 381.445 472.848 382.288 473.427 383.326
C 474.022 384.393 473.731 386.138 473.764 387.317
C 473.849 390.372 473.767 393.435 473.762 396.492
C 473.75 405.655 473.557 414.825 473.602 423.987
C 473.615 426.738 473.635 429.488 473.639 432.239
C 473.64 433.548 473.946 435.224 473.501 436.478
C 472.651 437.011 471.401 436.729 470.48 436.567
C 469.256 431.668 470.218 425.549 470.189 420.512
C 470.124 409.367 470.132 398.213 470.059 387.074
C 468.678 386.57 466.961 386.767 465.505 386.747
C 462.673 386.709 459.84 386.76 457.008 386.7
C 455.461 386.667 453.224 387.176 452.016 385.949
C 450.784 384.699 451.111 382.587 451.163 381
C 451.265 377.928 451.212 374.858 451.278 371.786
C 451.301 370.725 451.664 368.801 451.197 367.835
C 446.702 367.468 441.979 367.607 437.473 367.775
C 437.194 366.844 438.57 365.263 438.878 364.377 Z
M 454.332 369.149
C 454.618 372.402 454.33 375.728 454.432 378.997
C 454.472 380.283 454.235 381.937 454.679 383.144
C 458.12 383.193 461.56 383.336 465.005 383.356
C 465.819 383.361 468.03 383.65 468.648 383.16
C 465.299 379.489 461.979 375.78 458.287 372.45
C 457.056 371.34 455.916 369.727 454.332 369.149 Z"
opacity="1" fill="rgb(85,172,69)" fill-rule="evenodd" />
<path d="
M 437.986 359.792
C 439.459 359.233 440.406 355.321 440.777 353.897
C 441.532 353.09 441.832 351.836 442.192 350.814
C 443.131 351.389 442.438 352.685 442.168 353.526
C 441.462 355.729 440.587 357.862 439.889 360.07
C 439.641 360.858 439.809 362.208 439.35 362.877
C 439.187 363.116 438.671 362.397 438.598 362.304
C 438.013 361.55 438.094 360.693 437.986 359.792 Z"
opacity="0.996" fill="rgb(225,215,224)" fill-rule="evenodd" />
<path d="
M 438.061 484.872
C 438.615 485.012 439.051 485.049 439.385 485.527
C 440.327 487.396 441.75 489.1 442.479 491.054
C 440.134 489.391 437.153 488.282 438.061 484.872 Z"
opacity="0.996" fill="rgb(112,147,164)" fill-rule="evenodd" />
<path d="
M 449.64 478.7
C 449.77 478.721 449.9 478.742 450.031 478.763
C 450.456 480.635 451.835 480.647 453.512 480.921
C 456.75 481.449 460.172 481.37 463.431 481.002
C 464.184 480.917 467.531 480.12 467.053 478.971
C 464.154 478.027 460.542 478.001 457.507 477.97
C 457.711 477.878 458.279 477.873 458.412 477.707
C 458.593 477.48 458.352 476.629 458.355 476.544
C 458.38 475.683 458.86 474.795 458.942 473.918
C 459.541 473.558 459.573 473.171 459.669 472.48
C 460.359 472.283 460.797 472.274 461.488 472.213
C 463.496 472.117 465.48 472.215 467.488 472.254
C 469.771 472.288 472.524 471.587 474.333 473.074
C 475.024 474.227 475.849 473.35 476.93 473.311
C 478.248 473.264 479.722 473.496 480.97 473.901
C 481.049 473.848 481.128 473.795 481.207 473.742
C 479.942 475.365 478.654 477.26 476.84 478.311
C 476.816 477.764 475.036 477.859 474.497 477.844
C 472.212 477.777 469.136 479.503 467.693 481.247
C 465.791 481.893 464.026 483.639 462.216 484.587
C 456.4 487.632 449.83 490.921 443.333 492.101
C 442.938 491.779 442.72 491.504 442.479 491.054
C 441.75 489.1 440.327 487.396 439.385 485.527
C 439.24 484.7 439.324 484.118 440.015 483.559
C 441.189 482.611 442.777 482.148 444.082 481.398
C 445.353 480.667 446.403 479.679 447.625 478.933
C 448.307 478.859 448.95 478.71 449.64 478.7 Z"
opacity="1" fill="rgb(238,238,238)" fill-rule="evenodd" />
<path d="
M 443.333 492.101
C 449.83 490.921 456.4 487.632 462.216 484.587
C 464.026 483.639 465.791 481.893 467.693 481.247
C 468.783 482.027 471.178 481.996 472.481 481.88
C 466.433 486.245 460.412 490.094 453.515 493.008
C 451.415 493.895 448.264 495.688 445.967 495.581
C 444.982 494.908 443.877 493.165 443.333 492.101 Z"
opacity="1" fill="rgb(215,217,217)" fill-rule="evenodd" />
<path d="
M 489.335 463.935
C 488.518 465.461 487.465 467.101 486.265 468.353
C 486.257 468.36 486.22 466.56 486.172 466.154
C 485.97 464.445 486.096 462.714 486.106 460.999
C 486.129 457.363 486.213 453.726 486.267 450.09
C 486.293 448.356 486.538 446.281 485.625 444.729
C 484.001 443.394 479.958 444.05 477.949 444.065
C 471.721 444.11 465.473 444.158 459.24 444.19
C 456.628 444.204 453.32 443.307 451.468 445.697
C 450.101 447.462 450.759 450.895 450.745 452.989
C 450.708 458.142 450.737 463.294 450.744 468.448
C 450.748 470.69 450.229 473.737 451.05 475.849
C 451.973 476.634 453.037 477.299 453.984 478.037
C 452.536 477.916 451.436 478.739 450.031 478.763
C 449.9 478.742 449.77 478.721 449.64 478.7
C 449.067 478.113 448.305 477.77 447.981 476.953
C 447.506 475.753 447.692 474.025 447.69 472.753
C 447.684 469.667 447.897 466.584 447.88 463.498
C 447.854 458.692 447.705 453.88 447.83 449.076
C 447.89 446.792 447.659 444.196 449.473 442.472
C 451.164 440.864 453.341 440.829 455.528 440.81
C 459.022 440.78 462.512 440.789 466.006 440.83
C 471.337 440.893 476.669 440.637 481.998 440.694
C 484.386 440.72 487.039 440.847 488.526 443.049
C 490.74 446.325 489.471 451.85 489.498 455.547
C 489.516 457.994 490.437 461.912 489.335 463.935 Z"
opacity="1" fill="rgb(88,181,90)" fill-rule="evenodd" />
<path d="
M 448.299 396.883
C 449.926 395.812 451.65 396.134 453.509 396.169
C 456.557 396.226 459.649 396.041 462.686 396.305
C 463.208 397.096 463.047 398.759 462.405 399.449
C 461.546 399.935 460.354 399.818 459.394 399.817
C 457.097 399.814 454.799 399.747 452.502 399.773
C 451.413 399.786 449.794 400.141 448.849 399.541
C 448.389 398.711 448.202 397.823 448.299 396.883 Z"
opacity="1" fill="rgb(45,162,78)" fill-rule="evenodd" />
<path d="
M 450.031 478.763
C 451.436 478.739 452.536 477.916 453.984 478.037
C 455.159 478.044 456.332 477.97 457.507 477.97
C 460.542 478.001 464.154 478.027 467.053 478.971
C 467.531 480.12 464.184 480.917 463.431 481.002
C 460.172 481.37 456.75 481.449 453.512 480.921
C 451.835 480.647 450.456 480.635 450.031 478.763 Z"
opacity="1" fill="rgb(192,221,210)" fill-rule="evenodd" />
<path d="
M 486.265 468.353
C 484.783 470.357 483.1 472.119 481.207 473.742
C 481.271 473.657 481.336 473.572 481.4 473.487
C 481.178 472.399 480.791 471.389 480.416 470.35
C 478.472 469.839 476.33 470.655 474.4 470.835
C 472.751 471.85 470.392 471.569 468.541 471.584
C 467.614 471.485 466.981 471.157 466.186 470.696
C 465 470.122 465.843 467.698 465.505 466.635
C 466.756 466.704 467.862 466.121 469.092 465.974
C 472.132 465.61 475.207 465.52 478.231 465.156
C 478.361 464.739 478.318 464.462 478.239 464.04
C 477.57 463.621 476.376 463.453 475.617 463.838
C 475.01 464.145 475.001 465.407 474.108 464.755
C 473.615 464.396 473.8 463.297 473.595 462.762
C 469.537 462.849 465.372 462.918 461.315 462.759
C 460.882 463.549 460.501 465.633 460.97 466.436
C 462.305 466.258 463.674 466.536 465.008 466.624
C 463.907 467.629 463.678 468.315 462.137 468.756
C 460.845 469.411 460.01 471.654 461.488 472.213
C 460.797 472.274 460.359 472.283 459.669 472.48
C 459.517 471.643 459.393 470.787 459.475 469.937
C 458.141 469.728 456.783 469.933 455.443 469.98
C 455.251 470.769 454.976 473.219 455.533 473.83
C 456.663 473.771 457.812 473.874 458.942 473.918
C 458.86 474.795 458.38 475.683 458.355 476.544
C 458.352 476.629 458.593 477.48 458.412 477.707
C 458.279 477.873 457.711 477.878 457.507 477.97
C 456.332 477.97 455.159 478.044 453.984 478.037
C 453.037 477.299 451.973 476.634 451.05 475.849
C 450.229 473.737 450.748 470.69 450.744 468.448
C 450.737 463.294 450.708 458.142 450.745 452.989
C 450.759 450.895 450.101 447.462 451.468 445.697
C 453.32 443.307 456.628 444.204 459.24 444.19
C 465.473 444.158 471.721 444.11 477.949 444.065
C 479.958 444.05 484.001 443.394 485.625 444.729
C 486.538 446.281 486.293 448.356 486.267 450.09
C 486.213 453.726 486.129 457.363 486.106 460.999
C 486.096 462.714 485.97 464.445 486.172 466.154
C 486.22 466.56 486.257 468.36 486.265 468.353 Z
M 455.834 448.403
C 455.777 449.495 455.661 450.573 455.86 451.655
C 456.683 451.846 457.518 451.822 458.359 451.881
C 458.305 450.755 458.642 449.74 458.654 448.636
C 457.709 448.453 456.792 448.44 455.834 448.403 Z
M 455.985 455.809
C 455.903 456.835 455.692 457.992 455.837 459.017
C 456.765 458.974 457.677 459.139 458.614 458.976
C 459.097 458.185 459.021 456.845 459.004 455.937
C 458.067 455.629 456.953 455.646 455.985 455.809 Z
M 455.812 462.855
C 455.687 463.877 455.401 465.195 455.937 466.123
C 456.911 466.149 457.88 466.23 458.856 466.25
C 458.724 465.203 459.018 463.849 458.622 462.897
C 457.681 462.795 456.758 462.829 455.812 462.855 Z
M 460.379 455.854
C 460.355 456.825 459.976 458.115 460.45 458.969
C 464.716 458.367 469.617 458.951 473.94 458.949
C 475.442 458.948 477.267 459.242 478.722 458.905
C 479.06 458.163 478.521 456.846 478.307 456.116
C 477.019 455.463 474.838 455.862 473.412 455.834
C 469.307 455.752 464.394 454.996 460.379 455.854 Z
M 462.415 448.915
C 462.121 449.796 462.105 450.818 462.134 451.74
C 466.303 452.756 471.365 452.195 475.64 452.11
C 477.446 452.075 479.98 452.33 481.692 451.794
C 481.715 450.929 481.906 449.769 481.336 449.054
C 475.032 448.959 468.722 448.937 462.415 448.915 Z"
opacity="1" fill="rgb(221,223,224)" fill-rule="evenodd" />
<path d="
M 454.332 369.149
C 455.916 369.727 457.056 371.34 458.287 372.45
C 461.979 375.78 465.299 379.489 468.648 383.16
C 468.03 383.65 465.819 383.361 465.005 383.356
C 461.56 383.336 458.12 383.193 454.679 383.144
C 454.235 381.937 454.472 380.283 454.432 378.997
C 454.33 375.728 454.618 372.402 454.332 369.149 Z"
opacity="1" fill="rgb(217,219,218)" fill-rule="evenodd" />
<path d="
M 459.669 472.48
C 459.573 473.171 459.541 473.558 458.942 473.918
C 457.812 473.874 456.663 473.771 455.533 473.83
C 454.976 473.219 455.251 470.769 455.443 469.98
C 456.783 469.933 458.141 469.728 459.475 469.937
C 459.393 470.787 459.517 471.643 459.669 472.48 Z"
opacity="1" fill="rgb(100,179,100)" fill-rule="evenodd" />
<path d="
M 455.834 448.403
C 456.792 448.44 457.709 448.453 458.654 448.636
C 458.642 449.74 458.305 450.755 458.359 451.881
C 457.518 451.822 456.683 451.846 455.86 451.655
C 455.661 450.573 455.777 449.495 455.834 448.403 Z"
opacity="0.996" fill="rgb(81,177,77)" fill-rule="evenodd" />
<path d="
M 455.985 455.809
C 456.953 455.646 458.067 455.629 459.004 455.937
C 459.021 456.845 459.097 458.185 458.614 458.976
C 457.677 459.139 456.765 458.974 455.837 459.017
C 455.692 457.992 455.903 456.835 455.985 455.809 Z"
opacity="0.996" fill="rgb(102,192,89)" fill-rule="evenodd" />
<path d="
M 455.812 462.855
C 456.758 462.829 457.681 462.795 458.622 462.897
C 459.018 463.849 458.724 465.203 458.856 466.25
C 457.88 466.23 456.911 466.149 455.937 466.123
C 455.401 465.195 455.687 463.877 455.812 462.855 Z"
opacity="0.996" fill="rgb(114,188,110)" fill-rule="evenodd" />
<path d="
M 460.369 313.974
C 473.032 306.804 490.969 305.504 503.09 314.49
C 506.846 317.275 510.263 321.165 511.818 325.655
C 514.111 332.273 512.917 340.564 512.896 347.448
C 512.888 350.181 512.428 352.942 513.27 355.593
C 511.532 354.3 510.185 351.374 508.885 349.602
C 505.854 345.471 502.543 341.701 499.062 337.951
C 499.576 337.897 499.236 337.029 499.184 336.676
C 498.945 335.053 498.601 333.485 498.117 331.916
C 496.556 326.848 491.388 324.2 486.472 323.445
C 484.776 323.185 482.976 322.824 481.26 322.855
C 480.725 322.865 479.805 322.721 479.939 323.458
C 477.2 322.153 474.663 320.374 471.944 319.005
C 468.173 317.105 464.257 315.566 460.369 313.974 Z"
opacity="1" fill="rgb(77,181,87)" fill-rule="evenodd" />
<path d="
M 460.379 455.854
C 464.394 454.996 469.307 455.752 473.412 455.834
C 474.838 455.862 477.019 455.463 478.307 456.116
C 478.521 456.846 479.06 458.163 478.722 458.905
C 477.267 459.242 475.442 458.948 473.94 458.949
C 469.617 458.951 464.716 458.367 460.45 458.969
C 459.976 458.115 460.355 456.825 460.379 455.854 Z"
opacity="0.996" fill="rgb(108,184,85)" fill-rule="evenodd" />
<path d="
M 465.505 466.635
C 465.339 466.632 465.174 466.628 465.008 466.624
C 463.674 466.536 462.305 466.258 460.97 466.436
C 460.501 465.633 460.882 463.549 461.315 462.759
C 465.372 462.918 469.537 462.849 473.595 462.762
C 473.8 463.297 473.615 464.396 474.108 464.755
C 475.001 465.407 475.01 464.145 475.617 463.838
C 476.376 463.453 477.57 463.621 478.239 464.04
C 478.318 464.462 478.361 464.739 478.231 465.156
C 475.207 465.52 472.132 465.61 469.092 465.974
C 467.862 466.121 466.756 466.704 465.505 466.635 Z"
opacity="0.996" fill="rgb(117,184,104)" fill-rule="evenodd" />
<path d="
M 465.008 466.624
C 465.174 466.628 465.339 466.632 465.505 466.635
C 465.843 467.698 465 470.122 466.186 470.696
C 466.981 471.157 467.614 471.485 468.541 471.584
C 468.236 472.033 467.928 471.994 467.488 472.254
C 465.48 472.215 463.496 472.117 461.488 472.213
C 460.01 471.654 460.845 469.411 462.137 468.756
C 463.678 468.315 463.907 467.629 465.008 466.624 Z"
opacity="1" fill="rgb(193,209,195)" fill-rule="evenodd" />
<path d="
M 462.415 448.915
C 468.722 448.937 475.032 448.959 481.336 449.054
C 481.906 449.769 481.715 450.929 481.692 451.794
C 479.98 452.33 477.446 452.075 475.64 452.11
C 471.365 452.195 466.303 452.756 462.134 451.74
C 462.105 450.818 462.121 449.796 462.415 448.915 Z"
opacity="0.996" fill="rgb(121,188,88)" fill-rule="evenodd" />
<path d="
M 468.541 471.584
C 470.392 471.569 472.751 471.85 474.4 470.835
C 474.212 471.567 474.29 472.322 474.333 473.074
C 472.524 471.587 469.771 472.288 467.488 472.254
C 467.928 471.994 468.236 472.033 468.541 471.584 Z"
opacity="0.996" fill="rgb(196,210,207)" fill-rule="evenodd" />
<path d="
M 476.84 478.311
C 475.523 479.558 474.065 480.983 472.481 481.88
C 471.178 481.996 468.783 482.027 467.693 481.247
C 469.136 479.503 472.212 477.777 474.497 477.844
C 475.036 477.859 476.816 477.764 476.84 478.311 Z"
opacity="0.996" fill="rgb(104,141,114)" fill-rule="evenodd" />
<path d="
M 474.4 470.835
C 476.33 470.655 478.472 469.839 480.416 470.35
C 480.791 471.389 481.178 472.399 481.4 473.487
C 481.109 473.737 481.253 473.6 480.97 473.901
C 479.722 473.496 478.248 473.264 476.93 473.311
C 475.849 473.35 475.024 474.227 474.333 473.074
C 474.29 472.322 474.212 471.567 474.4 470.835 Z"
opacity="0.996" fill="rgb(137,207,138)" fill-rule="evenodd" />
<path d="
M 491.946 620.606
C 492.007 619.937 491.986 620.324 491.978 619.443
C 497.782 619.229 503.686 619.236 509.492 619.419
C 509.935 624.607 509.555 629.92 509.594 635.132
C 509.688 647.421 509.569 659.712 509.632 672.001
C 509.655 676.501 509.677 681.001 509.687 685.501
C 509.689 686.671 509.132 689.715 509.8 690.572
C 523.236 689.718 536.838 690.645 550.285 690.616
C 550.135 695.86 550.27 701.148 550.268 706.397
C 549.433 706.912 546.894 706.534 545.86 706.473
C 542.096 706.252 538.274 706.461 534.505 706.448
C 520.358 706.403 506.122 705.905 491.985 706.438
C 491.482 701.517 491.873 696.438 491.922 691.498
C 491.998 683.884 491.938 676.267 491.963 668.652
C 491.994 658.948 492.138 649.246 492.047 639.542
C 491.988 633.255 491.596 626.887 491.946 620.606 Z"
opacity="1" fill="rgb(15,32,70)" fill-rule="evenodd" />
<path d="
M 502.827 407.97
C 503.796 409.906 503.348 413.761 503.346 415.922
C 503.343 419.937 503.111 423.916 502.943 427.918
C 502.797 431.413 502.774 435.322 501.308 438.563
C 501.564 437.181 501.074 435.417 500.966 434.01
C 500.776 431.531 500.91 429.031 500.886 426.547
C 500.847 422.569 500.86 418.472 501.413 414.526
C 501.682 412.61 502.362 410.809 502.666 408.934
C 502.743 408.525 502.882 408.337 502.827 407.97 Z"
opacity="1" fill="rgb(40,111,99)" fill-rule="evenodd" />
<path d="
M 531.022 502.988
C 533.469 505.499 535.581 508.334 538.055 510.826
C 539.095 511.873 541.292 513.123 541.903 514.369
C 545.249 518.689 549.374 522.406 553.099 526.394
C 554.363 527.747 555.929 528.984 557.011 530.483
C 557.399 530.792 557.694 531.151 558.041 531.501
C 565.798 540.328 574.564 548.534 582.897 556.822
C 587.777 561.676 593.3 565.948 595.499 572.729
C 600.192 587.206 584.041 600.343 570.606 594.14
C 567.186 592.561 564.716 589.666 562.175 586.982
C 558.494 583.096 554.856 579.183 551.087 575.386
C 538.852 563.059 526.892 550.45 514.699 538.092
C 512.048 535.405 509.36 532.74 506.852 529.918
C 505.712 528.636 504.745 526.945 503.48 525.828
C 499.665 520.442 504.098 515.722 507.773 512.117
C 510.559 509.385 513.358 506.692 516.248 504.07
C 517.498 502.935 518.778 501.468 520.3 500.698
C 524.03 498.811 528.154 500.398 531.022 502.988 Z
M 508.842 524.023
C 508.341 525.27 509.062 526.576 509.828 527.523
C 511.69 529.825 513.781 532.014 515.858 534.121
C 524.348 542.734 533.189 550.951 542.172 559.042
C 544.81 561.418 547.436 563.796 550.158 566.078
C 550.851 566.658 551.553 567.251 552.153 567.928
C 552.329 568.127 552.52 568.636 552.732 568.476
C 552.798 568.426 552.356 567.698 552.313 567.594
C 551.981 566.799 551.575 566.11 551.128 565.374
C 549.326 562.409 547.206 559.435 544.963 556.787
C 536.575 546.884 528.968 536.374 520.285 526.703
C 517.968 524.122 513.44 518.948 509.98 522.491
C 509.56 522.922 509.07 523.455 508.842 524.023 Z"
opacity="1" fill="rgb(69,181,116)" fill-rule="evenodd" />
<path d="
M 508.842 524.023
C 509.07 523.455 509.56 522.922 509.98 522.491
C 513.44 518.948 517.968 524.122 520.285 526.703
C 528.968 536.374 536.575 546.884 544.963 556.787
C 547.206 559.435 549.326 562.409 551.128 565.374
C 551.575 566.11 551.981 566.799 552.313 567.594
C 552.356 567.698 552.798 568.426 552.732 568.476
C 552.52 568.636 552.329 568.127 552.153 567.928
C 551.553 567.251 550.851 566.658 550.158 566.078
C 547.436 563.796 544.81 561.418 542.172 559.042
C 533.189 550.951 524.348 542.734 515.858 534.121
C 513.781 532.014 511.69 529.825 509.828 527.523
C 509.062 526.576 508.341 525.27 508.842 524.023 Z"
opacity="1" fill="rgb(115,197,152)" fill-rule="evenodd" />
<path d="
M 558.041 531.501
C 557.694 531.151 557.399 530.792 557.011 530.483
C 555.929 528.984 554.363 527.747 553.099 526.394
C 549.374 522.406 545.249 518.689 541.903 514.369
C 543.387 514.044 545.878 514.998 547.426 515.222
C 550.711 515.697 554.14 515.643 557.418 515.166
C 569.263 513.441 580.277 506.395 587.264 496.742
C 589.483 493.675 590.957 490.148 592.873 486.898
C 593.141 486.307 593.516 485.808 593.826 485.241
C 600.243 485.403 605.872 486.296 611.695 482.799
C 613.9 481.475 616.723 479.453 615.829 476.544
C 616.654 475.061 615.882 473.638 617.382 472.329
C 631.317 463.269 631.971 442.659 624.205 429.226
C 621.627 424.766 618.007 421.048 613.858 418.026
C 613.528 417.029 614.603 415.625 615.015 414.71
C 616.106 412.286 617.237 409.848 617.99 407.293
C 620.053 400.297 620.522 391.916 617.448 385.138
C 614.07 377.689 607.899 372.597 600.319 369.745
C 598.174 368.938 595.87 368.583 593.615 368.25
C 592.007 368.012 590.178 367.827 589.093 366.458
C 587.026 363.851 587.223 358.929 586.21 355.798
C 584.02 349.035 580.482 342.685 575.584 337.497
C 568.515 330.009 558.416 325.072 548.077 324.641
C 542.875 324.425 537.007 325.615 533.579 329.86
C 527.726 337.107 531.913 347.057 530.048 355.341
C 529.428 358.096 526.05 360.232 524.482 362.519
C 522.527 365.373 522.632 367.89 521.948 371.049
C 520.97 368.28 518.464 366.146 517.437 363.238
C 517.682 362.121 517.366 361.164 517.331 360.06
C 517.266 358.045 517.393 356.013 517.357 353.993
C 517.259 348.509 517.426 343.025 517.31 337.54
C 517.235 333.975 516.822 330.081 518.055 326.667
C 521.254 317.81 530.298 312.485 539.044 310.537
C 557.526 306.42 577.654 315.924 589.295 330.104
C 592.916 334.515 596.341 339.724 598.333 345.106
C 599.136 347.277 600.029 349.407 600.648 351.644
C 600.883 352.492 600.908 353.766 601.562 354.375
C 615.978 358.737 628.27 368.285 633.086 383.07
C 634.195 386.474 634.855 389.989 635.106 393.559
C 635.209 395.014 634.666 396.968 635.152 398.32
C 639.143 399.546 643.24 402.051 646.58 404.516
C 667.574 420.006 673.07 452.716 655.668 473.142
C 648.038 482.099 637.716 488.775 625.97 490.729
C 619.573 491.792 613.428 491.362 607.017 491.509
C 605.142 495.051 603.792 498.802 601.731 502.271
C 596.449 511.164 588.641 518.436 579.677 523.517
C 575.16 526.078 570.221 527.94 565.187 529.168
C 563.323 529.623 561.393 529.995 559.488 530.206
C 559.203 530.238 557.651 530.354 557.578 530.715
C 557.518 531.013 557.887 531.239 558.041 531.501 Z"
opacity="1" fill="rgb(13,71,83)" fill-rule="evenodd" />
<path d="
M 530.424 398.518
C 530.323 397.594 530.2 396.675 529.923 395.785
C 528.176 391.484 527.899 386.501 526.401 382.05
C 526.889 380.791 526.23 379.053 526.194 377.737
C 526.061 372.95 525.817 367.612 529.688 364.12
C 533.56 360.628 537.639 360.985 542.539 361.061
C 545.694 361.11 548.85 361.069 552.005 361.071
C 557.802 361.075 563.614 361.194 569.409 361.038
C 572.61 360.952 576.961 360.32 580.045 361.273
C 582.35 361.984 584.384 364.704 585.948 366.42
C 588.9 369.661 591.913 372.892 594.945 376.06
C 596.514 377.699 598.684 379.313 599.664 381.406
C 600.356 382.884 600.212 384.728 600.229 386.318
C 600.263 389.375 600.186 392.433 600.183 395.49
C 600.174 404.823 600.27 414.158 600.197 423.49
C 600.172 426.571 600.199 429.651 600.191 432.732
C 600.188 433.932 599.822 435.649 600.134 436.784
C 599.038 436.92 597.989 436.633 596.912 436.523
C 595.719 430.358 596.658 423.271 596.69 417.005
C 596.745 406.281 596.252 395.536 596.659 384.815
C 595.46 384.236 593.336 384.663 592.005 384.647
C 588.844 384.607 585.686 384.515 582.525 384.471
C 580.777 384.446 578.903 384.636 577.298 383.858
C 576.404 382.574 576.828 380.031 576.823 378.493
C 576.811 373.997 576.685 369.454 576.852 364.964
C 576.192 364.546 574.797 364.815 574.001 364.806
C 571.5 364.779 568.999 364.746 566.498 364.744
C 557.999 364.738 549.495 364.614 540.996 364.694
C 537.103 364.731 532.809 364.526 530.899 368.648
C 529.8 371.021 530.088 373.839 530.063 376.392
C 530.016 381.394 530.101 386.389 530.197 391.388
C 530.234 393.31 531.073 396.764 530.424 398.518 Z
M 580.27 365.979
C 579.99 370.912 580.187 375.847 580.185 380.781
C 584.678 381.212 589.484 380.957 593.99 380.732
C 593.908 379.653 591.7 377.672 590.979 376.818
C 587.686 372.92 584.094 369.351 580.27 365.979 Z"
opacity="1" fill="rgb(88,181,82)" fill-rule="evenodd" />
<path d="
M 530.132 439.933
C 529.682 444.648 529.741 449.244 529.754 453.986
C 529.76 456.319 529.565 458.952 531.068 460.919
C 533.691 464.353 539.229 463.424 543.005 463.411
C 549.671 463.389 556.339 463.358 563.004 463.39
C 566.233 463.406 569.739 463.044 572.921 463.606
C 573.271 464.817 573.768 465.718 573.145 466.833
C 563.333 467.397 553.339 466.772 543.505 466.852
C 539.336 466.885 533.886 467.745 530.359 465.004
C 528.127 463.269 526.624 460.602 526.397 457.78
C 526.303 456.601 527.08 454.27 526.289 453.312
C 527.25 449.671 528.743 446.126 529.537 442.45
C 529.611 441.578 529.856 440.764 530.132 439.933 Z"
opacity="1" fill="rgb(33,155,110)" fill-rule="evenodd" />
<path d="
M 536.972 392.612
C 537.436 389.28 539.206 382.994 543.295 382.317
C 543.34 381.572 542.609 380.763 542.417 380.03
C 541.963 378.294 542.111 376.083 543.05 374.52
C 545.772 369.987 552.525 370.201 555.025 374.843
C 556.587 377.743 555.517 380.304 554.538 383.087
C 559.495 384.34 560.999 391.001 559.791 395.384
C 558.367 396.132 555.605 395.479 554.012 395.47
C 550.344 395.449 546.678 395.365 543.011 395.364
C 541.113 395.363 539.041 395.688 537.218 395.102
C 536.903 394.295 536.909 393.469 536.972 392.612 Z
M 540.424 391.079
C 540.247 391.725 540.309 391.419 540.223 391.994
C 544.341 392.113 548.494 391.952 552.616 391.975
C 553.465 391.98 556.406 392.492 557.015 392.031
C 556.321 389.636 555.717 386.323 553.041 385.343
C 551.576 385.331 550.128 385.745 548.667 385.555
C 547.497 385.404 546.085 384.764 544.923 385.132
C 542.556 385.883 541.201 388.975 540.424 391.079 Z
M 545.842 376.535
C 544.203 380.88 550.394 384.527 552.383 379.809
C 554.198 375.507 547.6 371.873 545.842 376.535 Z"
opacity="1" fill="rgb(15,152,153)" fill-rule="evenodd" />
<path d="
M 537.353 404.052
C 537.518 403.407 537.393 403.71 537.723 403.141
C 539.019 402.503 540.6 402.75 542.004 402.773
C 544.837 402.821 547.67 402.82 550.503 402.813
C 559.503 402.79 568.503 402.774 577.503 402.759
C 580.171 402.754 582.838 402.741 585.506 402.762
C 586.884 402.773 588.468 402.607 589.764 403.145
C 589.979 404.155 590.239 404.966 589.864 405.959
C 585.793 406.854 581.157 406.3 577.005 406.294
C 569.003 406.282 561.001 406.207 553 406.193
C 549.666 406.188 546.333 406.229 543 406.255
C 541.242 406.27 539.251 406.636 537.585 405.991
C 537.164 405.394 537.285 404.752 537.353 404.052 Z"
opacity="1" fill="rgb(91,188,61)" fill-rule="evenodd" />
<path d="
M 537.298 412.817
C 541.541 411.938 546.185 412.329 550.505 412.334
C 557.839 412.343 565.172 412.352 572.505 412.349
C 576.399 412.347 580.3 412.303 584.193 412.369
C 586.126 412.402 588.28 412.24 590.137 412.821
C 590.123 413.836 589.949 414.833 589.779 415.833
C 583.055 417.188 575.335 416.113 568.501 416.091
C 558.224 416.059 547.596 416.934 537.37 415.912
C 537.197 414.876 537.264 413.862 537.298 412.817 Z"
opacity="0.996" fill="rgb(95,178,73)" fill-rule="evenodd" />
<path d="
M 537.329 422.317
C 541.064 421.131 546.107 421.941 550.004 421.945
C 558.762 421.955 567.523 421.99 576.281 421.943
C 579.431 421.925 582.574 422.112 585.727 422.135
C 586.903 422.143 588.911 421.843 589.913 422.498
C 590.07 423.415 590.303 424.763 589.789 425.605
C 587.317 426.081 584.515 425.769 582.001 425.782
C 576.667 425.811 571.334 425.802 566.001 425.788
C 559.835 425.771 553.669 425.809 547.503 425.775
C 544.167 425.757 540.599 426.027 537.325 425.415
C 537.026 424.402 537.28 423.358 537.329 422.317 Z"
opacity="1" fill="rgb(95,182,81)" fill-rule="evenodd" />
<path d="
M 537.358 432.43
C 537.5 432.29 537.642 432.15 537.783 432.01
C 539.099 431.414 540.597 431.709 542.003 431.72
C 544.502 431.74 547.001 431.744 549.501 431.726
C 558.775 431.661 568.051 431.73 577.324 431.643
C 580.278 431.615 583.234 431.626 586.187 431.682
C 587.187 431.7 588.965 431.412 589.834 431.921
C 589.793 433.053 589.791 434.248 589.822 435.375
C 585.632 435.829 581.218 435.453 577.004 435.45
C 568.337 435.445 559.671 435.428 551.004 435.418
C 547.974 435.415 544.932 435.357 541.903 435.434
C 540.285 435.475 538.696 435.827 537.324 434.769
C 537.006 433.932 537.082 433.273 537.358 432.43 Z"
opacity="1" fill="rgb(86,175,85)" fill-rule="evenodd" />
<path d="
M 537.466 441.911
C 538.526 440.751 542.687 441.39 544.201 441.386
C 550.468 441.37 556.737 441.372 563.003 441.393
C 564.716 441.398 566.428 441.397 568.14 441.376
C 568.735 441.369 569.854 441.249 570.211 441.766
C 570.133 442.683 570.285 444.328 569.669 445.043
C 563.474 445.824 556.75 445.176 550.5 445.166
C 546.39 445.159 541.793 445.805 537.751 445.05
C 537.158 444.198 537.333 442.904 537.466 441.911 Z"
opacity="0.996" fill="rgb(76,176,85)" fill-rule="evenodd" />
<path d="
M 537.505 452.096
C 537.532 451.951 537.558 451.805 537.584 451.66
C 539.151 450.334 542.396 451.273 544.349 451.044
C 549.001 450.498 553.856 450.772 558.535 450.796
C 561.574 450.812 564.841 450.515 567.843 451.023
C 567.881 452.133 568.018 453.166 567.796 454.27
C 561.807 455.125 555.532 454.654 549.496 454.719
C 545.76 454.759 541.282 455.319 537.639 454.389
C 537.42 453.613 537.425 452.896 537.505 452.096 Z"
opacity="0.996" fill="rgb(76,173,88)" fill-rule="evenodd" />
<path d="
M 551.43 667.596
C 552.702 661.157 554.733 655.414 559.121 650.371
C 570.75 637.009 591.167 635.884 603.943 648.294
C 609.596 653.784 612.909 661.511 613.618 669.309
C 613.929 672.734 613.385 676.249 613.725 679.648
C 598.51 679.521 583.194 680.172 567.994 679.621
C 567.529 680.624 568.253 682.257 568.674 683.255
C 569.856 686.057 571.433 688.674 573.966 690.446
C 579.143 694.068 586.411 694.704 592.143 691.841
C 595.059 690.384 597.269 688.175 600.011 686.51
C 602.366 690.455 606.504 693.478 609.871 696.502
C 608.528 698.261 605.752 699.806 603.943 701.091
C 591.957 709.601 574.976 710.703 563.19 700.976
C 553.422 692.914 549.652 679.849 551.43 667.596 Z
M 567.489 667.634
C 567.453 667.826 567.418 668.018 567.382 668.211
C 577.368 667.961 587.388 668.58 597.379 668.287
C 597.36 656.708 584.89 649.783 574.934 655.208
C 570.148 657.816 568.403 662.628 567.489 667.634 Z"
opacity="1" fill="rgb(14,31,70)" fill-rule="evenodd" />
<path d="
M 571.007 393.602
C 571.039 393.359 571.072 393.116 571.105 392.874
C 573.281 392.132 575.738 392.59 578.005 392.58
C 582.085 392.563 586.199 392.335 590.268 392.674
C 590.141 393.694 590.465 394.99 590.049 395.952
C 585.929 396.416 581.736 395.958 577.607 395.98
C 575.559 395.991 573.04 396.444 571.147 395.505
C 570.995 394.85 570.962 394.274 571.007 393.602 Z"
opacity="0.996" fill="rgb(95,176,68)" fill-rule="evenodd" />
<path d="
M 617.382 472.329
C 615.882 473.638 616.654 475.061 615.829 476.544
C 615.823 475.747 615.875 475.525 615.083 475.448
C 614.427 475.545 613.903 475.816 613.32 476.119
C 612.585 476.062 612.87 475.018 612.884 474.503
C 612.932 472.667 613.141 470.847 613.164 469.007
C 613.236 463.337 613.357 457.668 613.411 451.998
C 613.43 449.998 614.113 446.851 612.85 445.169
C 611.608 444.148 609.829 444.347 608.307 444.37
C 605.205 444.418 602.106 444.396 599.004 444.396
C 594.084 444.394 589.166 444.485 584.246 444.44
C 582.581 444.425 579.661 444.063 578.432 445.434
C 576.848 447.2 577.381 450.33 577.348 452.494
C 577.252 458.822 577.181 465.166 577.304 471.494
C 577.35 473.864 576.628 477.607 578.695 479.294
C 580.058 480.407 581.911 480.336 583.571 480.365
C 586.148 480.412 588.628 480.002 591.185 479.914
C 593.028 479.851 595.059 480.101 596.863 479.758
C 596.167 480.634 595.43 481.413 594.699 482.269
C 594.05 482.879 593.482 483.609 592.681 484.017
C 590.752 484.471 588.446 484.176 586.467 484.167
C 582.806 484.15 578.39 484.295 575.696 481.335
C 573.889 479.35 574.115 476.481 574.146 474.004
C 574.205 469.165 574.081 464.338 574.072 459.5
C 574.063 455.337 573.591 450.752 574.322 446.644
C 574.674 444.663 575.471 442.651 577.393 441.714
C 580.037 440.424 583.669 441.088 586.513 441.11
C 593.172 441.162 599.845 441.296 606.504 441.182
C 609.716 441.127 613.607 440.557 615.847 443.461
C 617.198 445.212 616.762 448.079 616.733 450.153
C 616.662 455.266 616.72 460.38 616.673 465.494
C 616.658 467.155 616.546 468.852 616.654 470.51
C 616.7 471.229 616.494 472.445 617.382 472.329 Z"
opacity="1" fill="rgb(59,168,104)" fill-rule="evenodd" />
<path d="
M 582.901 449.938
C 582.93 449.824 582.96 449.709 582.989 449.595
C 583.698 449.402 584.673 449.178 585.375 449.509
C 585.457 450.324 585.735 451.949 585.364 452.679
C 584.546 452.808 583.616 452.896 582.848 452.549
C 582.809 451.672 582.841 450.813 582.901 449.938 Z"
opacity="1" fill="rgb(70,172,83)" fill-rule="evenodd" />
<path d="
M 582.996 458.106
C 583.027 457.917 583.058 457.728 583.09 457.54
C 583.891 457.084 584.525 457.092 585.388 457.384
C 585.541 457.891 586.144 459.661 585.595 459.981
C 584.86 460.083 584.163 459.983 583.426 459.947
C 582.833 459.391 582.931 458.88 582.996 458.106 Z"
opacity="0.996" fill="rgb(77,180,93)" fill-rule="evenodd" />
<path d="
M 582.881 465.064
C 583.581 464.056 584.806 464.28 585.907 464.682
C 585.876 465.598 586.019 466.461 585.86 467.376
C 584.891 467.626 583.845 467.563 582.854 467.603
C 582.825 466.756 582.829 465.91 582.881 465.064 Z"
opacity="1" fill="rgb(71,175,107)" fill-rule="evenodd" />
<path d="
M 582.839 471.829
C 583.823 471.724 584.738 471.672 585.727 471.743
C 585.83 472.603 585.931 473.723 585.612 474.537
C 584.767 474.771 583.959 474.748 583.108 474.609
C 582.886 473.672 582.823 472.791 582.839 471.829 Z"
opacity="0.996" fill="rgb(48,162,102)" fill-rule="evenodd" />
<path d="
M 587.942 457.496
C 588.014 457.321 588.085 457.145 588.156 456.969
C 592.682 456.684 597.641 456.564 602.153 457.059
C 603.12 457.165 605.779 456.722 606.392 457.471
C 606.368 458.283 606.323 459.098 606.366 459.911
C 604.893 460.718 602.239 460.236 600.597 460.193
C 596.393 460.084 592.188 459.987 587.984 459.928
C 587.69 459.194 587.849 458.271 587.942 457.496 Z"
opacity="0.996" fill="rgb(75,175,72)" fill-rule="evenodd" />
<path d="
M 588.202 464.762
C 592.774 463.748 598.334 464.182 603.01 464.227
C 604.089 464.238 607.308 463.757 608.034 464.405
C 608.143 465.268 607.9 466.158 607.95 467.034
C 606.92 467.737 604.245 467.305 603.009 467.347
C 598.27 467.509 593.479 467.755 588.743 467.454
C 587.936 466.921 588.221 465.642 588.202 464.762 Z"
opacity="0.996" fill="rgb(67,161,81)" fill-rule="evenodd" />
<path d="
M 589.008 452.156
C 589.111 451.357 589.152 450.555 589.241 449.755
C 595.631 449.275 602.444 449.466 608.862 449.684
C 608.981 450.483 609.129 451.124 609.107 451.94
C 609.099 452.24 609.309 453.03 609.078 452.839
C 602.497 453.007 595.793 453.053 589.219 452.797
C 588.934 452.47 589.03 452.673 589.008 452.156 Z"
opacity="0.996" fill="rgb(96,186,84)" fill-rule="evenodd" />
<path d="
M 588.978 473.122
C 589.007 472.436 589 472.824 588.981 471.959
C 593.794 471.531 598.833 471.868 603.668 471.895
C 604.922 471.902 607.902 471.557 608.836 472.431
C 608.915 473.205 608.863 473.977 608.844 474.753
C 604.637 475.111 600.231 474.671 596.005 474.671
C 593.882 474.671 591.084 475.119 589.043 474.512
C 588.99 474.037 588.962 473.6 588.978 473.122 Z"
opacity="0.996" fill="rgb(55,161,102)" fill-rule="evenodd" />
<path d="
M 624.385 640.827
C 625.592 640.266 627.235 640.508 628.546 640.507
C 631.36 640.506 634.176 640.438 636.992 640.443
C 638.124 640.445 640.072 640.218 640.992 640.86
C 640.673 644.065 641.107 647.314 641.014 650.525
C 642.464 649.764 643.847 647.256 645.118 646.097
C 647.981 643.486 651.386 641.473 655.122 640.416
C 667.883 636.806 680.333 644.879 683.821 657.277
C 685.243 662.329 684.958 667.935 684.918 673.132
C 684.86 680.588 684.823 688.044 684.805 695.5
C 684.797 698.954 684.392 702.704 684.797 706.126
C 679.196 706.132 673.449 706.412 667.86 706.067
C 667.814 695.382 667.86 684.69 667.86 674.001
C 667.86 668.33 668.011 662.032 663.624 657.728
C 656.946 651.175 646.427 655.62 642.836 663.087
C 640.877 667.162 641.129 671.588 641.155 676.004
C 641.191 682.171 641.263 688.336 641.252 694.504
C 641.247 697.17 641.247 699.837 641.251 702.504
C 641.252 703.535 640.941 705.241 641.306 706.169
C 635.819 705.794 630.095 705.898 624.601 706.128
C 623.97 704.145 624.295 701.571 624.275 699.506
C 624.228 694.84 624.241 690.173 624.235 685.506
C 624.213 670.626 624.061 655.702 624.385 640.827 Z"
opacity="1" fill="rgb(15,32,71)" fill-rule="evenodd" />
<path d="
M 694.404 697.031
C 697.126 693.571 699.247 689.724 702.166 686.423
C 703.305 686.595 704.797 688.195 705.822 688.83
C 708.214 690.313 710.756 691.407 713.447 692.221
C 717.555 693.463 723.523 694.608 727.654 692.974
C 731.397 691.494 732.012 686.714 729.174 683.966
C 726.784 681.653 722.762 680.819 719.662 679.955
C 711.139 677.58 701.328 676.511 697.29 667.341
C 692.013 655.357 700.732 642.939 712.644 640.271
C 724.365 637.646 735.551 641.275 745.38 647.497
C 743.839 650.144 742.099 652.67 740.697 655.413
C 740.011 656.755 739.172 659.045 737.988 659.995
C 735.904 658.781 734.082 657.181 731.91 656.061
C 727.871 653.98 722.754 652.824 718.221 653.18
C 713.86 653.523 708.691 658.045 712.92 662.283
C 715.456 664.824 720.694 665.419 724.075 666.208
C 733.07 668.307 743.963 671.545 746.758 681.565
C 747.299 683.504 747.444 685.552 747.396 687.556
C 747.109 699.51 737.631 706.359 726.426 707.64
C 717.82 708.624 708.752 706.82 701.181 702.622
C 698.593 701.188 696.528 699.247 694.151 697.546
C 694.236 697.374 694.32 697.203 694.404 697.031 Z"
opacity="1" fill="rgb(14,31,71)" fill-rule="evenodd" />
<path d="
M 773.762 706.232
C 782.88 685.406 791.934 664.547 801.021 643.702
C 803.501 638.014 805.743 632.234 808.155 626.518
C 809.018 624.472 809.794 620.847 811.517 619.403
C 816.841 619.452 822.181 619.155 827.499 619.257
C 831.722 628.562 835.205 638.227 839.118 647.667
C 844.147 659.802 849.44 671.836 854.361 684.013
C 856.663 689.71 859.142 695.345 861.326 701.09
C 861.874 702.53 862.481 703.976 863.106 705.383
C 863.228 705.658 863.796 706.261 863.733 706.539
C 859.453 706.411 855.129 706.554 850.831 706.559
C 849.15 706.561 846.249 706.904 844.741 706.186
C 842.691 701.934 841.351 697.275 839.566 692.903
C 838.918 691.313 838.38 689.003 837.129 687.785
C 829.785 686.887 821.893 687.739 814.498 687.757
C 810.091 687.768 804.811 686.996 800.515 688.005
C 798.794 690.479 797.81 693.544 796.734 696.347
C 795.464 699.657 793.987 702.883 792.727 706.194
C 791.331 706.589 789.454 706.257 787.996 706.275
C 784.744 706.314 781.49 706.364 778.238 706.343
C 777.303 706.337 774.438 706.838 773.762 706.232 Z
M 806.323 672.232
C 814.538 672.443 823.129 672.946 831.324 672.184
C 831.336 671.479 830.688 670.64 830.439 669.977
C 829.551 667.616 828.572 665.318 827.581 663
C 824.556 655.923 821.829 648.715 818.82 641.642
C 814.384 651.722 810.309 661.971 806.323 672.232 Z"
opacity="1" fill="rgb(74,184,117)" fill-rule="evenodd" />
<path d="
M 870.775 619.817
C 876.795 619.544 882.845 619.939 888.866 619.673
C 889.009 639.445 888.861 659.228 888.916 679.003
C 888.934 685.336 888.92 691.668 888.9 698.002
C 888.893 700.521 889.527 704.123 888.895 706.53
C 887.376 706.989 885.17 706.574 883.581 706.553
C 879.348 706.496 875.074 706.208 870.844 706.423
C 870.024 704.757 870.664 701.375 870.662 699.504
C 870.656 693.67 870.646 687.836 870.65 682.002
C 870.66 668.836 870.707 655.667 870.739 642.5
C 870.757 634.953 871.128 627.357 870.775 619.817 Z"
opacity="1" fill="rgb(24,167,156)" fill-rule="evenodd" />

</svg>