<svg width="500" height="680" viewBox="0 0 500 680" fill="none" xmlns="http://www.w3.org/2000/svg">
<g clip-path="url(#clip0_16_468)">
<path d="M240 57.5C320.72 116.865 363.5 170.58 363.5 289.5C363.5 295 377.902 465.419 250 553C192.779 592.183 81.5 634 81.5 634" stroke="#EAF4FF" stroke-opacity="0.42" stroke-width="1.2" stroke-linecap="round"/>
<g filter="url(#filter0_f_16_468)">
<path d="M240 57.5C320.72 116.865 363.5 170.58 363.5 289.5C363.5 295 377.902 465.419 250 553C192.779 592.183 81.5 634 81.5 634" stroke="#EAF4FF" stroke-opacity="0.06" stroke-width="4" stroke-linecap="round"/>
</g>
<g filter="url(#filter1_f_16_468)">
<circle cx="93" cy="628" r="5" fill="white" fill-opacity="0.75"/>
</g>
<g filter="url(#filter2_d_16_468)">
<rect x="174" y="14" width="58" height="58" rx="15" fill="#DCE6F2" fill-opacity="0.82" stroke="white" stroke-opacity="0.58"/>
<rect x="176.719" y="16.7188" width="52.5625" height="52.5625" rx="12" fill="#DCE6F2" fill-opacity="0.82" stroke="white" stroke-opacity="0.58"/>
<path d="M212.75 52.75L208.048 48.0483" stroke="#4F7FEF" stroke-opacity="0.9" stroke-width="2" stroke-linecap="round" stroke-linejoin="round"/>
<path d="M201.917 50.5833C206.703 50.5833 210.583 46.7031 210.583 41.9167C210.583 37.1302 206.703 33.25 201.917 33.25C197.13 33.25 193.25 37.1302 193.25 41.9167C193.25 46.7031 197.13 50.5833 201.917 50.5833Z" stroke="#4F7FEF" stroke-opacity="0.9" stroke-width="2" stroke-linecap="round" stroke-linejoin="round"/>
</g>
<g filter="url(#filter3_d_16_468)">
<rect x="305" y="136" width="58" height="58" rx="15" fill="#DCE6F2" fill-opacity="0.82"/>
<rect x="307.719" y="138.719" width="52.5625" height="52.5625" rx="12" fill="#DCE6F2" fill-opacity="0.82"/>
<path d="M326.417 174.75V168.25" stroke="#18A878" stroke-opacity="0.9" stroke-width="2" stroke-linecap="round" stroke-linejoin="round"/>
<path d="M334 174.75V161.75" stroke="#18A878" stroke-opacity="0.9" stroke-width="2" stroke-linecap="round" stroke-linejoin="round"/>
<path d="M341.583 174.75V155.25" stroke="#18A878" stroke-opacity="0.9" stroke-width="2" stroke-linecap="round" stroke-linejoin="round"/>
</g>
<g filter="url(#filter4_d_16_468)">
<rect x="334" y="288" width="58" height="58" rx="15" fill="#DCE6F2" fill-opacity="0.82"/>
<rect x="336.719" y="290.719" width="52.5625" height="52.5625" rx="12" fill="#DCE6F2" fill-opacity="0.82"/>
<path d="M356.5 326.833C355.925 326.833 355.374 326.605 354.968 326.199C354.562 325.792 354.333 325.241 354.333 324.667V307.333C354.333 306.759 354.562 306.208 354.968 305.801C355.374 305.395 355.925 305.167 356.5 305.167H365.167C365.51 305.166 365.849 305.233 366.166 305.365C366.483 305.496 366.771 305.689 367.013 305.932L370.9 309.819C371.143 310.061 371.336 310.349 371.468 310.666C371.6 310.983 371.667 311.323 371.667 311.667V324.667C371.667 325.241 371.438 325.792 371.032 326.199C370.626 326.605 370.075 326.833 369.5 326.833H356.5Z" stroke="#8B5CF6" stroke-opacity="0.9" stroke-width="2" stroke-linecap="round" stroke-linejoin="round"/>
<path d="M365.167 305.167V310.583C365.167 310.871 365.281 311.146 365.484 311.349C365.687 311.553 365.963 311.667 366.25 311.667H371.667" stroke="#8B5CF6" stroke-opacity="0.9" stroke-width="2" stroke-linecap="round" stroke-linejoin="round"/>
<path d="M360.833 312.75H358.667" stroke="#8B5CF6" stroke-opacity="0.9" stroke-width="2" stroke-linecap="round" stroke-linejoin="round"/>
<path d="M367.333 317.083H358.667" stroke="#8B5CF6" stroke-opacity="0.9" stroke-width="2" stroke-linecap="round" stroke-linejoin="round"/>
<path d="M367.333 321.417H358.667" stroke="#8B5CF6" stroke-opacity="0.9" stroke-width="2" stroke-linecap="round" stroke-linejoin="round"/>
</g>
<g filter="url(#filter5_d_16_468)">
<rect x="192" y="539" width="58" height="58" rx="15" fill="#617E9C" fill-opacity="0.72" stroke="white" stroke-opacity="0.58"/>
<rect x="194.719" y="541.719" width="52.5625" height="52.5625" rx="12" fill="#617E9C" fill-opacity="0.72" stroke="white" stroke-opacity="0.58"/>
<path d="M222.083 577.75H230.75" stroke="#08A7C6" stroke-opacity="0.9" stroke-width="2" stroke-linecap="round" stroke-linejoin="round"/>
<path d="M224.25 560.417L228.583 564.75" stroke="#08A7C6" stroke-opacity="0.9" stroke-width="2" stroke-linecap="round" stroke-linejoin="round"/>
<path d="M230.939 562.38C231.511 561.807 231.833 561.03 231.833 560.22C231.833 559.411 231.512 558.634 230.939 558.061C230.366 557.488 229.59 557.166 228.78 557.166C227.97 557.166 227.193 557.488 226.62 558.06L212.162 572.522C211.911 572.773 211.725 573.081 211.621 573.421L210.189 578.136C210.161 578.229 210.159 578.329 210.183 578.424C210.207 578.518 210.257 578.605 210.326 578.674C210.395 578.743 210.482 578.792 210.576 578.816C210.671 578.84 210.771 578.838 210.864 578.81L215.58 577.38C215.919 577.276 216.228 577.091 216.479 576.841L230.939 562.38Z" stroke="#08A7C6" stroke-opacity="0.9" stroke-width="2" stroke-linecap="round" stroke-linejoin="round"/>
</g>
<g filter="url(#filter6_d_16_468)">
<rect x="18" y="598" width="58" height="58" rx="15" fill="#617E9C" fill-opacity="0.72" stroke="white" stroke-opacity="0.58"/>
<rect x="20.7188" y="600.719" width="52.5625" height="52.5625" rx="12" fill="#617E9C" fill-opacity="0.72" stroke="white" stroke-opacity="0.58"/>
<path d="M38.1708 622.338C38.0127 621.626 38.037 620.885 38.2414 620.185C38.4458 619.485 38.8238 618.847 39.3403 618.332C39.8567 617.816 40.4949 617.44 41.1957 617.237C41.8965 617.034 42.6372 617.011 43.3492 617.171C43.741 616.558 44.2808 616.054 44.9189 615.704C45.5569 615.355 46.2726 615.172 47 615.172C47.7274 615.172 48.4431 615.355 49.0811 615.704C49.7192 616.054 50.259 616.558 50.6508 617.171C51.3638 617.011 52.1058 617.033 52.8077 617.237C53.5097 617.44 54.1487 617.818 54.6655 618.334C55.1823 618.851 55.5599 619.49 55.7634 620.192C55.9668 620.894 55.9895 621.636 55.8292 622.349C56.442 622.741 56.9463 623.281 57.2957 623.919C57.645 624.557 57.8281 625.273 57.8281 626C57.8281 626.727 57.645 627.443 57.2957 628.081C56.9463 628.719 56.442 629.259 55.8292 629.651C55.9888 630.363 55.966 631.103 55.7631 631.804C55.5601 632.505 55.1835 633.143 54.6681 633.66C54.1528 634.176 53.5153 634.554 52.815 634.759C52.1146 634.963 51.3739 634.987 50.6617 634.829C50.2703 635.444 49.7301 635.951 49.091 636.302C48.4518 636.653 47.7345 636.837 47.0054 636.837C46.2763 636.837 45.559 636.653 44.9199 636.302C44.2807 635.951 43.7405 635.444 43.3492 634.829C42.6372 634.989 41.8965 634.966 41.1957 634.763C40.4949 634.56 39.8567 634.183 39.3403 633.668C38.8238 633.153 38.4458 632.515 38.2414 631.815C38.037 631.115 38.0127 630.374 38.1708 629.662C37.5533 629.271 37.0446 628.73 36.6921 628.09C36.3397 627.45 36.1548 626.731 36.1548 626C36.1548 625.269 36.3397 624.55 36.6921 623.91C37.0446 623.27 37.5533 622.729 38.1708 622.338Z" stroke="#16B894" stroke-opacity="0.9" stroke-width="2" stroke-linecap="round" stroke-linejoin="round"/>
<path d="M43.75 626L45.9167 628.167L50.25 623.833" stroke="#16B894" stroke-opacity="0.9" stroke-width="2" stroke-linecap="round" stroke-linejoin="round"/>
</g>
<g opacity="0.9" filter="url(#filter7_d_16_468)">
<path d="M260.616 564.141V562.818H268.496V564.141H265.32V573H263.788V564.141H260.616Z" fill="#F8FBFF" fill-opacity="0.9" shape-rendering="crispEdges"/>
<path d="M271.302 573.169C270.818 573.169 270.38 573.08 269.989 572.901C269.598 572.718 269.288 572.455 269.059 572.11C268.834 571.765 268.721 571.343 268.721 570.842C268.721 570.411 268.804 570.057 268.97 569.778C269.136 569.5 269.359 569.28 269.641 569.117C269.923 568.955 270.238 568.832 270.586 568.749C270.934 568.666 271.288 568.603 271.65 568.56C272.107 568.507 272.478 568.464 272.763 568.431C273.048 568.395 273.256 568.337 273.385 568.257C273.514 568.178 273.579 568.048 273.579 567.869V567.834C273.579 567.4 273.456 567.064 273.211 566.825C272.969 566.587 272.608 566.467 272.127 566.467C271.626 566.467 271.232 566.578 270.944 566.8C270.659 567.019 270.461 567.263 270.352 567.531L268.955 567.213C269.121 566.749 269.363 566.374 269.681 566.089C270.002 565.801 270.372 565.592 270.79 565.463C271.207 565.33 271.646 565.264 272.107 565.264C272.412 565.264 272.735 565.301 273.077 565.374C273.421 565.443 273.743 565.572 274.041 565.761C274.343 565.95 274.59 566.22 274.782 566.572C274.974 566.92 275.07 567.372 275.07 567.929V573H273.618V571.956H273.559C273.463 572.148 273.318 572.337 273.126 572.523C272.934 572.708 272.687 572.862 272.385 572.985C272.084 573.108 271.723 573.169 271.302 573.169ZM271.625 571.976C272.036 571.976 272.387 571.895 272.679 571.732C272.974 571.57 273.198 571.358 273.35 571.096C273.506 570.831 273.584 570.547 273.584 570.246V569.261C273.531 569.314 273.428 569.364 273.275 569.41C273.126 569.454 272.956 569.492 272.763 569.525C272.571 569.555 272.384 569.583 272.202 569.609C272.019 569.633 271.867 569.652 271.744 569.669C271.456 569.705 271.192 569.767 270.954 569.853C270.718 569.939 270.529 570.063 270.387 570.226C270.248 570.385 270.178 570.597 270.178 570.862C270.178 571.23 270.314 571.508 270.586 571.697C270.858 571.883 271.204 571.976 271.625 571.976Z" fill="#F8FBFF" fill-opacity="0.9" shape-rendering="crispEdges"/>
<path d="M277.05 573V565.364H278.537V573H277.05ZM277.801 564.185C277.542 564.185 277.32 564.099 277.135 563.927C276.952 563.751 276.861 563.542 276.861 563.3C276.861 563.055 276.952 562.846 277.135 562.674C277.32 562.498 277.542 562.41 277.801 562.41C278.059 562.41 278.28 562.498 278.462 562.674C278.648 562.846 278.74 563.055 278.74 563.3C278.74 563.542 278.648 563.751 278.462 563.927C278.28 564.099 278.059 564.185 277.801 564.185Z" fill="#F8FBFF" fill-opacity="0.9" shape-rendering="crispEdges"/>
<path d="M282.023 562.818V573H280.536V562.818H282.023Z" fill="#F8FBFF" fill-opacity="0.9" shape-rendering="crispEdges"/>
<path d="M287.239 573.154C286.523 573.154 285.899 572.99 285.365 572.662C284.831 572.334 284.417 571.875 284.122 571.285C283.827 570.695 283.68 570.005 283.68 569.217C283.68 568.424 283.827 567.732 284.122 567.138C284.417 566.545 284.831 566.084 285.365 565.756C285.899 565.428 286.523 565.264 287.239 565.264C287.955 565.264 288.58 565.428 289.114 565.756C289.647 566.084 290.062 566.545 290.357 567.138C290.652 567.732 290.799 568.424 290.799 569.217C290.799 570.005 290.652 570.695 290.357 571.285C290.062 571.875 289.647 572.334 289.114 572.662C288.58 572.99 287.955 573.154 287.239 573.154ZM287.244 571.906C287.708 571.906 288.093 571.784 288.398 571.538C288.703 571.293 288.928 570.967 289.074 570.559C289.223 570.151 289.298 569.702 289.298 569.212C289.298 568.724 289.223 568.277 289.074 567.869C288.928 567.458 288.703 567.129 288.398 566.88C288.093 566.631 287.708 566.507 287.244 566.507C286.777 566.507 286.389 566.631 286.081 566.88C285.776 567.129 285.549 567.458 285.4 567.869C285.254 568.277 285.181 568.724 285.181 569.212C285.181 569.702 285.254 570.151 285.4 570.559C285.549 570.967 285.776 571.293 286.081 571.538C286.389 571.784 286.777 571.906 287.244 571.906Z" fill="#F8FBFF" fill-opacity="0.9" shape-rendering="crispEdges"/>
<path d="M292.458 573V565.364H293.895V566.577H293.975C294.114 566.166 294.359 565.843 294.71 565.607C295.065 565.369 295.466 565.249 295.914 565.249C296.006 565.249 296.116 565.253 296.242 565.259C296.371 565.266 296.472 565.274 296.545 565.284V566.706C296.485 566.689 296.379 566.671 296.227 566.651C296.074 566.628 295.922 566.616 295.769 566.616C295.418 566.616 295.105 566.691 294.83 566.84C294.558 566.986 294.343 567.19 294.183 567.452C294.024 567.71 293.945 568.005 293.945 568.337V573H292.458Z" fill="#F8FBFF" fill-opacity="0.9" shape-rendering="crispEdges"/>
<path d="M307.259 567.228L305.911 567.467C305.855 567.294 305.766 567.13 305.643 566.974C305.524 566.819 305.361 566.691 305.156 566.592C304.95 566.492 304.693 566.442 304.385 566.442C303.964 566.442 303.613 566.537 303.331 566.726C303.049 566.911 302.909 567.152 302.909 567.447C302.909 567.702 303.003 567.907 303.192 568.063C303.381 568.219 303.686 568.347 304.107 568.446L305.32 568.724C306.022 568.887 306.546 569.137 306.891 569.475C307.236 569.813 307.408 570.252 307.408 570.793C307.408 571.25 307.275 571.658 307.01 572.016C306.748 572.37 306.382 572.649 305.911 572.851C305.444 573.053 304.902 573.154 304.286 573.154C303.431 573.154 302.733 572.972 302.193 572.607C301.652 572.239 301.321 571.717 301.198 571.041L302.635 570.822C302.725 571.197 302.909 571.48 303.187 571.673C303.465 571.861 303.828 571.956 304.276 571.956C304.763 571.956 305.152 571.855 305.444 571.653C305.736 571.447 305.882 571.197 305.882 570.902C305.882 570.663 305.792 570.463 305.613 570.3C305.437 570.138 305.167 570.015 304.803 569.933L303.51 569.649C302.798 569.487 302.271 569.228 301.929 568.874C301.591 568.519 301.422 568.07 301.422 567.526C301.422 567.075 301.548 566.681 301.8 566.343C302.052 566.005 302.4 565.741 302.844 565.553C303.288 565.36 303.797 565.264 304.37 565.264C305.195 565.264 305.845 565.443 306.319 565.801C306.793 566.156 307.106 566.631 307.259 567.228Z" fill="#F8FBFF" fill-opacity="0.9" shape-rendering="crispEdges"/>
<path d="M311.265 573.169C310.781 573.169 310.343 573.08 309.952 572.901C309.561 572.718 309.251 572.455 309.022 572.11C308.797 571.765 308.684 571.343 308.684 570.842C308.684 570.411 308.767 570.057 308.933 569.778C309.099 569.5 309.322 569.28 309.604 569.117C309.886 568.955 310.201 568.832 310.549 568.749C310.897 568.666 311.251 568.603 311.613 568.56C312.07 568.507 312.441 568.464 312.726 568.431C313.011 568.395 313.218 568.337 313.348 568.257C313.477 568.178 313.542 568.048 313.542 567.869V567.834C313.542 567.4 313.419 567.064 313.174 566.825C312.932 566.587 312.57 566.467 312.09 566.467C311.589 566.467 311.195 566.578 310.907 566.8C310.622 567.019 310.424 567.263 310.315 567.531L308.918 567.213C309.084 566.749 309.326 566.374 309.644 566.089C309.965 565.801 310.335 565.592 310.752 565.463C311.17 565.33 311.609 565.264 312.07 565.264C312.375 565.264 312.698 565.301 313.039 565.374C313.384 565.443 313.706 565.572 314.004 565.761C314.306 565.95 314.552 566.22 314.745 566.572C314.937 566.92 315.033 567.372 315.033 567.929V573H313.581V571.956H313.522C313.426 572.148 313.281 572.337 313.089 572.523C312.897 572.708 312.65 572.862 312.348 572.985C312.047 573.108 311.685 573.169 311.265 573.169ZM311.588 571.976C311.999 571.976 312.35 571.895 312.642 571.732C312.937 571.57 313.16 571.358 313.313 571.096C313.469 570.831 313.547 570.547 313.547 570.246V569.261C313.493 569.314 313.391 569.364 313.238 569.41C313.089 569.454 312.918 569.492 312.726 569.525C312.534 569.555 312.347 569.583 312.164 569.609C311.982 569.633 311.83 569.652 311.707 569.669C311.419 569.705 311.155 569.767 310.917 569.853C310.681 569.939 310.492 570.063 310.35 570.226C310.211 570.385 310.141 570.597 310.141 570.862C310.141 571.23 310.277 571.508 310.549 571.697C310.82 571.883 311.167 571.976 311.588 571.976Z" fill="#F8FBFF" fill-opacity="0.9" shape-rendering="crispEdges"/>
<path d="M320.647 565.364V566.557H316.332V565.364H320.647ZM317.515 573V564.479C317.515 564.001 317.62 563.605 317.828 563.29C318.037 562.972 318.314 562.735 318.659 562.58C319.003 562.42 319.378 562.341 319.782 562.341C320.08 562.341 320.336 562.366 320.548 562.415C320.76 562.462 320.917 562.505 321.02 562.545L320.672 563.748C320.602 563.728 320.513 563.705 320.404 563.678C320.294 563.648 320.162 563.633 320.006 563.633C319.645 563.633 319.386 563.723 319.23 563.902C319.078 564.081 319.002 564.339 319.002 564.678V573H317.515Z" fill="#F8FBFF" fill-opacity="0.9" shape-rendering="crispEdges"/>
<path d="M325.171 573.154C324.419 573.154 323.771 572.993 323.227 572.672C322.687 572.347 322.27 571.891 321.975 571.305C321.683 570.715 321.537 570.024 321.537 569.232C321.537 568.449 321.683 567.76 321.975 567.163C322.27 566.567 322.681 566.101 323.208 565.766C323.738 565.432 324.358 565.264 325.067 565.264C325.498 565.264 325.915 565.335 326.32 565.478C326.724 565.62 327.087 565.844 327.409 566.149C327.73 566.454 327.984 566.85 328.169 567.337C328.355 567.821 328.448 568.41 328.448 569.102V569.629H322.377V568.516H326.991C326.991 568.124 326.911 567.778 326.752 567.477C326.593 567.172 326.37 566.931 326.081 566.756C325.796 566.58 325.461 566.492 325.077 566.492C324.659 566.492 324.295 566.595 323.983 566.8C323.675 567.003 323.436 567.268 323.267 567.596C323.102 567.921 323.019 568.274 323.019 568.655V569.525C323.019 570.035 323.108 570.469 323.287 570.827C323.469 571.185 323.723 571.459 324.048 571.648C324.373 571.833 324.752 571.926 325.186 571.926C325.468 571.926 325.725 571.886 325.957 571.807C326.189 571.724 326.389 571.601 326.558 571.439C326.727 571.276 326.857 571.076 326.946 570.837L328.353 571.091C328.24 571.505 328.038 571.868 327.747 572.18C327.458 572.488 327.095 572.728 326.658 572.901C326.224 573.07 325.728 573.154 325.171 573.154Z" fill="#F8FBFF" fill-opacity="0.9" shape-rendering="crispEdges"/>
<path d="M331.583 562.818V573H330.097V562.818H331.583Z" fill="#F8FBFF" fill-opacity="0.9" shape-rendering="crispEdges"/>
<path d="M334.523 575.864C334.301 575.864 334.099 575.845 333.916 575.809C333.734 575.776 333.598 575.739 333.509 575.7L333.867 574.482C334.138 574.554 334.38 574.586 334.593 574.576C334.805 574.566 334.992 574.486 335.154 574.337C335.32 574.188 335.466 573.945 335.592 573.607L335.776 573.099L332.982 565.364H334.573L336.507 571.29H336.586L338.52 565.364H340.116L336.969 574.019C336.823 574.417 336.637 574.753 336.412 575.028C336.187 575.307 335.918 575.516 335.607 575.655C335.295 575.794 334.934 575.864 334.523 575.864Z" fill="#F8FBFF" fill-opacity="0.9" shape-rendering="crispEdges"/>
</g>
<g opacity="0.9" filter="url(#filter8_d_16_468)">
<path d="M408.119 311V300.818H411.748C412.537 300.818 413.191 300.954 413.712 301.226C414.235 301.498 414.626 301.874 414.885 302.354C415.143 302.832 415.273 303.384 415.273 304.01C415.273 304.633 415.142 305.182 414.88 305.656C414.621 306.126 414.23 306.492 413.707 306.754C413.186 307.016 412.532 307.147 411.743 307.147H408.994V305.825H411.604C412.101 305.825 412.505 305.753 412.817 305.611C413.132 305.468 413.362 305.261 413.508 304.989C413.654 304.718 413.727 304.391 413.727 304.01C413.727 303.625 413.652 303.292 413.503 303.011C413.357 302.729 413.127 302.514 412.812 302.364C412.5 302.212 412.091 302.136 411.584 302.136H409.655V311H408.119ZM413.145 306.406L415.661 311H413.911L411.445 306.406H413.145Z" fill="#F8FBFF" fill-opacity="0.9" shape-rendering="crispEdges"/>
<path d="M420.218 311.154C419.466 311.154 418.818 310.993 418.274 310.672C417.734 310.347 417.316 309.891 417.021 309.305C416.73 308.715 416.584 308.024 416.584 307.232C416.584 306.449 416.73 305.76 417.021 305.163C417.316 304.567 417.727 304.101 418.254 303.766C418.785 303.432 419.405 303.264 420.114 303.264C420.545 303.264 420.962 303.335 421.367 303.478C421.771 303.621 422.134 303.844 422.455 304.149C422.777 304.454 423.03 304.85 423.216 305.337C423.402 305.821 423.495 306.41 423.495 307.102V307.629H417.424V306.516H422.038C422.038 306.125 421.958 305.778 421.799 305.477C421.64 305.172 421.416 304.931 421.128 304.756C420.843 304.58 420.508 304.492 420.124 304.492C419.706 304.492 419.342 304.595 419.03 304.8C418.722 305.003 418.483 305.268 418.314 305.596C418.148 305.921 418.066 306.274 418.066 306.655V307.525C418.066 308.035 418.155 308.469 418.334 308.827C418.516 309.185 418.77 309.459 419.095 309.648C419.419 309.833 419.799 309.926 420.233 309.926C420.515 309.926 420.772 309.886 421.004 309.807C421.236 309.724 421.436 309.601 421.605 309.439C421.774 309.277 421.904 309.076 421.993 308.837L423.4 309.091C423.287 309.505 423.085 309.868 422.794 310.18C422.505 310.488 422.142 310.728 421.705 310.901C421.271 311.07 420.775 311.154 420.218 311.154Z" fill="#F8FBFF" fill-opacity="0.9" shape-rendering="crispEdges"/>
<path d="M431.458 303.364L428.689 311H427.098L424.324 303.364H425.919L427.853 309.24H427.933L429.862 303.364H431.458Z" fill="#F8FBFF" fill-opacity="0.9" shape-rendering="crispEdges"/>
<path d="M432.855 311V303.364H434.341V311H432.855ZM433.605 302.185C433.347 302.185 433.125 302.099 432.939 301.927C432.757 301.751 432.666 301.542 432.666 301.3C432.666 301.055 432.757 300.846 432.939 300.674C433.125 300.498 433.347 300.411 433.605 300.411C433.864 300.411 434.084 300.498 434.267 300.674C434.452 300.846 434.545 301.055 434.545 301.3C434.545 301.542 434.452 301.751 434.267 301.927C434.084 302.099 433.864 302.185 433.605 302.185Z" fill="#F8FBFF" fill-opacity="0.9" shape-rendering="crispEdges"/>
<path d="M439.632 311.154C438.88 311.154 438.232 310.993 437.688 310.672C437.148 310.347 436.731 309.891 436.436 309.305C436.144 308.715 435.998 308.024 435.998 307.232C435.998 306.449 436.144 305.76 436.436 305.163C436.731 304.567 437.142 304.101 437.669 303.766C438.199 303.432 438.819 303.264 439.528 303.264C439.959 303.264 440.376 303.335 440.781 303.478C441.185 303.621 441.548 303.844 441.87 304.149C442.191 304.454 442.445 304.85 442.63 305.337C442.816 305.821 442.909 306.41 442.909 307.102V307.629H436.838V306.516H441.452C441.452 306.125 441.372 305.778 441.213 305.477C441.054 305.172 440.83 304.931 440.542 304.756C440.257 304.58 439.922 304.492 439.538 304.492C439.12 304.492 438.756 304.595 438.444 304.8C438.136 305.003 437.897 305.268 437.728 305.596C437.562 305.921 437.48 306.274 437.48 306.655V307.525C437.48 308.035 437.569 308.469 437.748 308.827C437.93 309.185 438.184 309.459 438.509 309.648C438.834 309.833 439.213 309.926 439.647 309.926C439.929 309.926 440.186 309.886 440.418 309.807C440.65 309.724 440.85 309.601 441.019 309.439C441.188 309.277 441.318 309.076 441.407 308.837L442.814 309.091C442.701 309.505 442.499 309.868 442.208 310.18C441.919 310.488 441.556 310.728 441.119 310.901C440.685 311.07 440.189 311.154 439.632 311.154Z" fill="#F8FBFF" fill-opacity="0.9" shape-rendering="crispEdges"/>
<path d="M446.2 311L443.953 303.364H445.489L446.985 308.972H447.06L448.561 303.364H450.097L451.589 308.947H451.664L453.15 303.364H454.686L452.444 311H450.928L449.377 305.487H449.262L447.711 311H446.2Z" fill="#F8FBFF" fill-opacity="0.9" shape-rendering="crispEdges"/>
<path d="M408.979 329H407.348L411.012 318.818H412.787L416.451 329H414.82L411.942 320.668H411.862L408.979 329ZM409.252 325.013H414.542V326.305H409.252V325.013Z" fill="#F8FBFF" fill-opacity="0.9" shape-rendering="crispEdges"/>
<path d="M419.458 318.818V329H417.921V318.818H419.458Z" fill="#F8FBFF" fill-opacity="0.9" shape-rendering="crispEdges"/>
<path d="M433.618 318.818V329H432.206L427.031 321.533H426.936V329H425.4V318.818H426.822L432.002 326.295H432.097V318.818H433.618Z" fill="#F8FBFF" fill-opacity="0.9" shape-rendering="crispEdges"/>
<path d="M438.956 329.154C438.24 329.154 437.615 328.99 437.082 328.662C436.548 328.334 436.134 327.875 435.839 327.285C435.544 326.695 435.396 326.005 435.396 325.217C435.396 324.424 435.544 323.732 435.839 323.139C436.134 322.545 436.548 322.085 437.082 321.756C437.615 321.428 438.24 321.264 438.956 321.264C439.672 321.264 440.297 321.428 440.83 321.756C441.364 322.085 441.778 322.545 442.073 323.139C442.368 323.732 442.516 324.424 442.516 325.217C442.516 326.005 442.368 326.695 442.073 327.285C441.778 327.875 441.364 328.334 440.83 328.662C440.297 328.99 439.672 329.154 438.956 329.154ZM438.961 327.906C439.425 327.906 439.81 327.784 440.115 327.538C440.419 327.293 440.645 326.967 440.791 326.559C440.94 326.151 441.014 325.702 441.014 325.212C441.014 324.724 440.94 324.277 440.791 323.869C440.645 323.458 440.419 323.129 440.115 322.88C439.81 322.631 439.425 322.507 438.961 322.507C438.494 322.507 438.106 322.631 437.798 322.88C437.493 323.129 437.266 323.458 437.117 323.869C436.971 324.277 436.898 324.724 436.898 325.212C436.898 325.702 436.971 326.151 437.117 326.559C437.266 326.967 437.493 327.293 437.798 327.538C438.106 327.784 438.494 327.906 438.961 327.906Z" fill="#F8FBFF" fill-opacity="0.9" shape-rendering="crispEdges"/>
<path d="M447.74 321.364V322.557H443.569V321.364H447.74ZM444.687 319.534H446.174V326.758C446.174 327.046 446.217 327.263 446.303 327.409C446.389 327.552 446.5 327.649 446.636 327.702C446.775 327.752 446.926 327.777 447.088 327.777C447.208 327.777 447.312 327.769 447.402 327.752C447.491 327.736 447.561 327.722 447.61 327.712L447.879 328.94C447.793 328.973 447.67 329.007 447.511 329.04C447.352 329.076 447.153 329.096 446.914 329.099C446.523 329.106 446.159 329.036 445.821 328.891C445.483 328.745 445.209 328.519 445 328.215C444.792 327.91 444.687 327.527 444.687 327.066V319.534Z" fill="#F8FBFF" fill-opacity="0.9" shape-rendering="crispEdges"/>
<path d="M452.593 329.154C451.841 329.154 451.193 328.993 450.649 328.672C450.109 328.347 449.691 327.891 449.396 327.305C449.105 326.715 448.959 326.024 448.959 325.232C448.959 324.449 449.105 323.76 449.396 323.163C449.691 322.567 450.102 322.101 450.629 321.766C451.16 321.432 451.78 321.264 452.489 321.264C452.92 321.264 453.337 321.335 453.742 321.478C454.146 321.621 454.509 321.844 454.83 322.149C455.152 322.454 455.405 322.85 455.591 323.337C455.777 323.821 455.87 324.41 455.87 325.102V325.629H449.799V324.516H454.413C454.413 324.125 454.333 323.778 454.174 323.477C454.015 323.172 453.791 322.931 453.503 322.756C453.218 322.58 452.883 322.492 452.499 322.492C452.081 322.492 451.717 322.595 451.405 322.8C451.097 323.003 450.858 323.268 450.689 323.596C450.523 323.921 450.441 324.274 450.441 324.655V325.525C450.441 326.035 450.53 326.469 450.709 326.827C450.891 327.185 451.145 327.459 451.47 327.648C451.794 327.833 452.174 327.926 452.608 327.926C452.89 327.926 453.147 327.886 453.379 327.807C453.611 327.724 453.811 327.601 453.98 327.439C454.149 327.277 454.279 327.076 454.368 326.837L455.775 327.091C455.662 327.505 455.46 327.868 455.169 328.18C454.88 328.488 454.517 328.728 454.08 328.901C453.646 329.07 453.15 329.154 452.593 329.154Z" fill="#F8FBFF" fill-opacity="0.9" shape-rendering="crispEdges"/>
<path d="M463.241 323.228L461.894 323.467C461.837 323.294 461.748 323.13 461.625 322.974C461.506 322.819 461.344 322.691 461.138 322.592C460.933 322.492 460.676 322.442 460.368 322.442C459.947 322.442 459.595 322.537 459.314 322.726C459.032 322.911 458.891 323.152 458.891 323.447C458.891 323.702 458.985 323.907 459.174 324.063C459.363 324.219 459.668 324.347 460.089 324.446L461.302 324.724C462.005 324.887 462.529 325.137 462.873 325.475C463.218 325.813 463.39 326.252 463.39 326.793C463.39 327.25 463.258 327.658 462.993 328.016C462.731 328.37 462.364 328.649 461.894 328.851C461.427 329.053 460.885 329.154 460.268 329.154C459.413 329.154 458.715 328.972 458.175 328.607C457.635 328.239 457.303 327.717 457.181 327.041L458.618 326.822C458.707 327.197 458.891 327.48 459.169 327.673C459.448 327.862 459.811 327.956 460.258 327.956C460.745 327.956 461.135 327.855 461.427 327.653C461.718 327.447 461.864 327.197 461.864 326.902C461.864 326.663 461.775 326.463 461.596 326.3C461.42 326.138 461.15 326.015 460.785 325.933L459.493 325.649C458.78 325.487 458.253 325.228 457.912 324.874C457.574 324.519 457.404 324.07 457.404 323.526C457.404 323.076 457.53 322.681 457.782 322.343C458.034 322.005 458.382 321.741 458.826 321.553C459.27 321.36 459.779 321.264 460.353 321.264C461.178 321.264 461.828 321.443 462.302 321.801C462.775 322.156 463.089 322.631 463.241 323.228Z" fill="#F8FBFF" fill-opacity="0.9" shape-rendering="crispEdges"/>
</g>
<g opacity="0.9" filter="url(#filter9_d_16_468)">
<path d="M89.9787 623H88.348L92.0121 612.818H93.7869L97.451 623H95.8203L92.9418 614.668H92.8622L89.9787 623ZM90.2521 619.013H95.5419V620.305H90.2521V619.013Z" fill="#F8FBFF" fill-opacity="0.9" shape-rendering="crispEdges"/>
<path d="M98.802 625.864V615.364H100.254V616.602H100.378C100.464 616.442 100.588 616.259 100.751 616.05C100.913 615.841 101.139 615.659 101.427 615.503C101.715 615.344 102.097 615.264 102.571 615.264C103.187 615.264 103.737 615.42 104.221 615.732C104.705 616.043 105.084 616.492 105.36 617.079C105.638 617.665 105.777 618.371 105.777 619.197C105.777 620.022 105.64 620.73 105.365 621.32C105.089 621.906 104.712 622.359 104.231 622.677C103.75 622.992 103.202 623.149 102.585 623.149C102.121 623.149 101.742 623.071 101.447 622.915C101.155 622.76 100.927 622.577 100.761 622.369C100.595 622.16 100.468 621.974 100.378 621.812H100.289V625.864H98.802ZM100.259 619.182C100.259 619.719 100.337 620.189 100.492 620.594C100.648 620.998 100.874 621.315 101.169 621.543C101.463 621.769 101.825 621.881 102.252 621.881C102.696 621.881 103.068 621.764 103.366 621.528C103.664 621.29 103.89 620.967 104.042 620.559C104.198 620.151 104.276 619.692 104.276 619.182C104.276 618.678 104.2 618.226 104.047 617.825C103.898 617.424 103.673 617.107 103.371 616.875C103.073 616.643 102.7 616.527 102.252 616.527C101.821 616.527 101.457 616.638 101.159 616.86C100.864 617.082 100.64 617.392 100.487 617.79C100.335 618.188 100.259 618.652 100.259 619.182Z" fill="#F8FBFF" fill-opacity="0.9" shape-rendering="crispEdges"/>
<path d="M107.443 625.864V615.364H108.894V616.602H109.019C109.105 616.442 109.229 616.259 109.392 616.05C109.554 615.841 109.779 615.659 110.068 615.503C110.356 615.344 110.737 615.264 111.211 615.264C111.828 615.264 112.378 615.42 112.862 615.732C113.346 616.043 113.725 616.492 114 617.079C114.279 617.665 114.418 618.371 114.418 619.197C114.418 620.022 114.28 620.73 114.005 621.32C113.73 621.906 113.352 622.359 112.872 622.677C112.391 622.992 111.843 623.149 111.226 623.149C110.762 623.149 110.383 623.071 110.088 622.915C109.796 622.76 109.567 622.577 109.401 622.369C109.236 622.16 109.108 621.974 109.019 621.812H108.929V625.864H107.443ZM108.899 619.182C108.899 619.719 108.977 620.189 109.133 620.594C109.289 620.998 109.514 621.315 109.809 621.543C110.104 621.769 110.465 621.881 110.893 621.881C111.337 621.881 111.708 621.764 112.007 621.528C112.305 621.29 112.53 620.967 112.683 620.559C112.838 620.151 112.916 619.692 112.916 619.182C112.916 618.678 112.84 618.226 112.688 617.825C112.539 617.424 112.313 617.107 112.012 616.875C111.713 616.643 111.34 616.527 110.893 616.527C110.462 616.527 110.097 616.638 109.799 616.86C109.504 617.082 109.28 617.392 109.128 617.79C108.976 618.188 108.899 618.652 108.899 619.182Z" fill="#F8FBFF" fill-opacity="0.9" shape-rendering="crispEdges"/>
<path d="M117.57 612.818V623H116.083V612.818H117.57Z" fill="#F8FBFF" fill-opacity="0.9" shape-rendering="crispEdges"/>
<path d="M120.509 625.864C120.287 625.864 120.085 625.845 119.903 625.809C119.72 625.776 119.585 625.739 119.495 625.7L119.853 624.482C120.125 624.554 120.367 624.586 120.579 624.576C120.791 624.566 120.978 624.487 121.141 624.337C121.306 624.188 121.452 623.945 121.578 623.607L121.762 623.099L118.968 615.364H120.559L122.493 621.29H122.572L124.506 615.364H126.102L122.955 624.019C122.809 624.417 122.624 624.753 122.398 625.028C122.173 625.307 121.905 625.516 121.593 625.655C121.281 625.794 120.92 625.864 120.509 625.864Z" fill="#F8FBFF" fill-opacity="0.9" shape-rendering="crispEdges"/>
<path d="M132.86 623L130.613 615.364H132.149L133.645 620.972H133.72L135.221 615.364H136.758L138.249 620.947H138.324L139.81 615.364H141.346L139.104 623H137.588L136.037 617.487H135.922L134.371 623H132.86Z" fill="#F8FBFF" fill-opacity="0.9" shape-rendering="crispEdges"/>
<path d="M142.757 623V615.364H144.244V623H142.757ZM143.508 614.185C143.249 614.185 143.027 614.099 142.842 613.927C142.659 613.751 142.568 613.542 142.568 613.3C142.568 613.055 142.659 612.846 142.842 612.674C143.027 612.498 143.249 612.411 143.508 612.411C143.766 612.411 143.987 612.498 144.169 612.674C144.355 612.846 144.447 613.055 144.447 613.3C144.447 613.542 144.355 613.751 144.169 613.927C143.987 614.099 143.766 614.185 143.508 614.185Z" fill="#F8FBFF" fill-opacity="0.9" shape-rendering="crispEdges"/>
<path d="M149.808 615.364V616.557H145.637V615.364H149.808ZM146.756 613.534H148.242V620.758C148.242 621.046 148.285 621.263 148.371 621.409C148.457 621.552 148.568 621.649 148.704 621.702C148.844 621.752 148.994 621.777 149.157 621.777C149.276 621.777 149.381 621.769 149.47 621.752C149.559 621.736 149.629 621.722 149.679 621.712L149.947 622.94C149.861 622.973 149.738 623.007 149.579 623.04C149.42 623.076 149.221 623.096 148.983 623.099C148.592 623.106 148.227 623.036 147.889 622.891C147.551 622.745 147.278 622.519 147.069 622.214C146.86 621.91 146.756 621.527 146.756 621.066V613.534Z" fill="#F8FBFF" fill-opacity="0.9" shape-rendering="crispEdges"/>
<path d="M153.103 618.466V623H151.616V612.818H153.083V616.607H153.178C153.357 616.196 153.63 615.869 153.998 615.627C154.366 615.385 154.846 615.264 155.44 615.264C155.963 615.264 156.421 615.372 156.812 615.587C157.206 615.803 157.511 616.124 157.727 616.552C157.945 616.976 158.055 617.506 158.055 618.143V623H156.568V618.322C156.568 617.762 156.424 617.327 156.136 617.019C155.847 616.708 155.446 616.552 154.933 616.552C154.581 616.552 154.266 616.626 153.988 616.776C153.713 616.925 153.496 617.143 153.337 617.432C153.181 617.717 153.103 618.062 153.103 618.466Z" fill="#F8FBFF" fill-opacity="0.9" shape-rendering="crispEdges"/>
<path d="M92.2159 641.154C91.4768 641.154 90.8404 640.987 90.3068 640.652C89.7765 640.314 89.3689 639.848 89.0838 639.255C88.7988 638.662 88.6563 637.982 88.6563 637.217C88.6563 636.441 88.8021 635.757 89.0938 635.163C89.3854 634.567 89.7964 634.101 90.3267 633.766C90.857 633.432 91.4818 633.264 92.201 633.264C92.781 633.264 93.2981 633.372 93.7521 633.587C94.2062 633.799 94.5725 634.098 94.8509 634.482C95.1326 634.867 95.3 635.316 95.353 635.83H93.9063C93.8267 635.472 93.6444 635.163 93.3594 634.905C93.0777 634.646 92.6998 634.517 92.2259 634.517C91.8116 634.517 91.4486 634.626 91.1371 634.845C90.8288 635.061 90.5886 635.369 90.4162 635.77C90.2439 636.168 90.1577 636.638 90.1577 637.182C90.1577 637.739 90.2422 638.219 90.4112 638.624C90.5803 639.028 90.8189 639.341 91.1271 639.563C91.4387 639.785 91.8049 639.896 92.2259 639.896C92.5076 639.896 92.7628 639.845 92.9915 639.742C93.2235 639.636 93.4174 639.485 93.5732 639.29C93.7323 639.094 93.8433 638.859 93.9063 638.584H95.353C95.3 639.078 95.1392 639.518 94.8707 639.906C94.6023 640.294 94.2427 640.599 93.7919 640.821C93.3445 641.043 92.8191 641.154 92.2159 641.154Z" fill="#F8FBFF" fill-opacity="0.9" shape-rendering="crispEdges"/>
<path d="M100.159 641.154C99.4434 641.154 98.8186 640.99 98.285 640.662C97.7514 640.334 97.3371 639.875 97.0421 639.285C96.7471 638.695 96.5996 638.005 96.5996 637.217C96.5996 636.424 96.7471 635.732 97.0421 635.139C97.3371 634.545 97.7514 634.085 98.285 633.756C98.8186 633.428 99.4434 633.264 100.159 633.264C100.875 633.264 101.5 633.428 102.034 633.756C102.567 634.085 102.981 634.545 103.276 635.139C103.571 635.732 103.719 636.424 103.719 637.217C103.719 638.005 103.571 638.695 103.276 639.285C102.981 639.875 102.567 640.334 102.034 640.662C101.5 640.99 100.875 641.154 100.159 641.154ZM100.164 639.906C100.628 639.906 101.013 639.784 101.318 639.538C101.623 639.293 101.848 638.967 101.994 638.559C102.143 638.151 102.218 637.702 102.218 637.212C102.218 636.724 102.143 636.277 101.994 635.869C101.848 635.458 101.623 635.129 101.318 634.88C101.013 634.631 100.628 634.507 100.164 634.507C99.6969 634.507 99.3091 634.631 99.0009 634.88C98.696 635.129 98.4689 635.458 98.3198 635.869C98.174 636.277 98.101 636.724 98.101 637.212C98.101 637.702 98.174 638.151 98.3198 638.559C98.4689 638.967 98.696 639.293 99.0009 639.538C99.3091 639.784 99.6969 639.906 100.164 639.906Z" fill="#F8FBFF" fill-opacity="0.9" shape-rendering="crispEdges"/>
<path d="M106.865 636.466V641H105.378V633.364H106.805V634.607H106.9C107.075 634.202 107.35 633.877 107.725 633.632C108.103 633.387 108.578 633.264 109.152 633.264C109.672 633.264 110.128 633.374 110.519 633.592C110.91 633.808 111.213 634.129 111.429 634.557C111.644 634.984 111.752 635.513 111.752 636.143V641H110.265V636.322C110.265 635.768 110.121 635.336 109.833 635.024C109.544 634.709 109.148 634.552 108.645 634.552C108.3 634.552 107.993 634.626 107.725 634.776C107.46 634.925 107.249 635.143 107.093 635.432C106.941 635.717 106.865 636.062 106.865 636.466Z" fill="#F8FBFF" fill-opacity="0.9" shape-rendering="crispEdges"/>
<path d="M117.38 633.364V634.557H113.064V633.364H117.38ZM114.248 641V632.479C114.248 632.001 114.352 631.605 114.561 631.29C114.77 630.972 115.046 630.735 115.391 630.58C115.736 630.42 116.11 630.341 116.515 630.341C116.813 630.341 117.068 630.366 117.28 630.415C117.492 630.462 117.65 630.505 117.752 630.545L117.404 631.748C117.335 631.728 117.245 631.705 117.136 631.678C117.027 631.648 116.894 631.634 116.738 631.634C116.377 631.634 116.119 631.723 115.963 631.902C115.81 632.081 115.734 632.34 115.734 632.678V641H114.248Z" fill="#F8FBFF" fill-opacity="0.9" shape-rendering="crispEdges"/>
<path d="M118.913 641V633.364H120.4V641H118.913ZM119.664 632.185C119.406 632.185 119.183 632.099 118.998 631.927C118.816 631.751 118.724 631.542 118.724 631.3C118.724 631.055 118.816 630.846 118.998 630.674C119.183 630.498 119.406 630.411 119.664 630.411C119.923 630.411 120.143 630.498 120.325 630.674C120.511 630.846 120.604 631.055 120.604 631.3C120.604 631.542 120.511 631.751 120.325 631.927C120.143 632.099 119.923 632.185 119.664 632.185Z" fill="#F8FBFF" fill-opacity="0.9" shape-rendering="crispEdges"/>
<path d="M125.258 641.149C124.642 641.149 124.092 640.992 123.608 640.677C123.127 640.359 122.749 639.906 122.474 639.32C122.202 638.73 122.067 638.022 122.067 637.197C122.067 636.371 122.204 635.665 122.479 635.079C122.758 634.492 123.139 634.043 123.623 633.732C124.107 633.42 124.655 633.264 125.268 633.264C125.742 633.264 126.123 633.344 126.412 633.503C126.703 633.659 126.929 633.841 127.088 634.05C127.25 634.259 127.376 634.442 127.466 634.602H127.555V630.818H129.042V641H127.59V639.812H127.466C127.376 639.974 127.247 640.16 127.078 640.369C126.912 640.577 126.684 640.76 126.392 640.915C126.1 641.071 125.722 641.149 125.258 641.149ZM125.586 639.881C126.014 639.881 126.375 639.769 126.67 639.543C126.969 639.315 127.194 638.998 127.346 638.594C127.502 638.189 127.58 637.719 127.58 637.182C127.58 636.652 127.504 636.188 127.351 635.79C127.199 635.392 126.975 635.082 126.68 634.86C126.385 634.638 126.021 634.527 125.586 634.527C125.139 634.527 124.766 634.643 124.468 634.875C124.17 635.107 123.944 635.424 123.792 635.825C123.643 636.226 123.568 636.678 123.568 637.182C123.568 637.692 123.644 638.151 123.797 638.559C123.949 638.967 124.175 639.29 124.473 639.528C124.774 639.764 125.146 639.881 125.586 639.881Z" fill="#F8FBFF" fill-opacity="0.9" shape-rendering="crispEdges"/>
<path d="M134.455 641.154C133.702 641.154 133.054 640.993 132.511 640.672C131.97 640.347 131.553 639.891 131.258 639.305C130.966 638.715 130.82 638.024 130.82 637.232C130.82 636.449 130.966 635.76 131.258 635.163C131.553 634.567 131.964 634.101 132.491 633.766C133.021 633.432 133.641 633.264 134.35 633.264C134.781 633.264 135.199 633.335 135.603 633.478C136.007 633.621 136.37 633.844 136.692 634.149C137.013 634.454 137.267 634.85 137.452 635.337C137.638 635.821 137.731 636.41 137.731 637.102V637.629H131.661V636.516H136.274C136.274 636.125 136.195 635.778 136.036 635.477C135.876 635.172 135.653 634.931 135.364 634.756C135.079 634.58 134.745 634.492 134.36 634.492C133.942 634.492 133.578 634.595 133.266 634.8C132.958 635.003 132.719 635.268 132.55 635.596C132.385 635.921 132.302 636.274 132.302 636.655V637.525C132.302 638.035 132.391 638.469 132.57 638.827C132.753 639.185 133.006 639.459 133.331 639.648C133.656 639.833 134.035 639.926 134.469 639.926C134.751 639.926 135.008 639.886 135.24 639.807C135.472 639.724 135.673 639.601 135.842 639.439C136.011 639.277 136.14 639.076 136.229 638.837L137.636 639.091C137.524 639.505 137.322 639.868 137.03 640.18C136.741 640.488 136.379 640.728 135.941 640.901C135.507 641.07 135.011 641.154 134.455 641.154Z" fill="#F8FBFF" fill-opacity="0.9" shape-rendering="crispEdges"/>
<path d="M140.867 636.466V641H139.38V633.364H140.807V634.607H140.901C141.077 634.202 141.352 633.877 141.727 633.632C142.105 633.387 142.58 633.264 143.154 633.264C143.674 633.264 144.13 633.374 144.521 633.592C144.912 633.808 145.215 634.129 145.431 634.557C145.646 634.984 145.754 635.513 145.754 636.143V641H144.267V636.322C144.267 635.768 144.123 635.336 143.835 635.024C143.546 634.709 143.15 634.552 142.646 634.552C142.302 634.552 141.995 634.626 141.727 634.776C141.462 634.925 141.251 635.143 141.095 635.432C140.943 635.717 140.867 636.062 140.867 636.466Z" fill="#F8FBFF" fill-opacity="0.9" shape-rendering="crispEdges"/>
<path d="M150.964 641.154C150.225 641.154 149.588 640.987 149.055 640.652C148.525 640.314 148.117 639.848 147.832 639.255C147.547 638.662 147.404 637.982 147.404 637.217C147.404 636.441 147.55 635.757 147.842 635.163C148.133 634.567 148.544 634.101 149.075 633.766C149.605 633.432 150.23 633.264 150.949 633.264C151.529 633.264 152.046 633.372 152.5 633.587C152.954 633.799 153.32 634.098 153.599 634.482C153.881 634.867 154.048 635.316 154.101 635.83H152.654C152.575 635.472 152.392 635.163 152.107 634.905C151.826 634.646 151.448 634.517 150.974 634.517C150.56 634.517 150.197 634.626 149.885 634.845C149.577 635.061 149.337 635.369 149.164 635.77C148.992 636.168 148.906 636.638 148.906 637.182C148.906 637.739 148.99 638.219 149.159 638.624C149.328 639.028 149.567 639.341 149.875 639.563C150.187 639.785 150.553 639.896 150.974 639.896C151.256 639.896 151.511 639.845 151.74 639.742C151.972 639.636 152.165 639.485 152.321 639.29C152.48 639.094 152.591 638.859 152.654 638.584H154.101C154.048 639.078 153.887 639.518 153.619 639.906C153.35 640.294 152.991 640.599 152.54 640.821C152.093 641.043 151.567 641.154 150.964 641.154Z" fill="#F8FBFF" fill-opacity="0.9" shape-rendering="crispEdges"/>
<path d="M158.982 641.154C158.23 641.154 157.582 640.993 157.038 640.672C156.498 640.347 156.08 639.891 155.785 639.305C155.493 638.715 155.348 638.024 155.348 637.232C155.348 636.449 155.493 635.76 155.785 635.163C156.08 634.567 156.491 634.101 157.018 633.766C157.548 633.432 158.168 633.264 158.877 633.264C159.308 633.264 159.726 633.335 160.13 633.478C160.535 633.621 160.898 633.844 161.219 634.149C161.541 634.454 161.794 634.85 161.98 635.337C162.165 635.821 162.258 636.41 162.258 637.102V637.629H156.188V636.516H160.802C160.802 636.125 160.722 635.778 160.563 635.477C160.404 635.172 160.18 634.931 159.892 634.756C159.607 634.58 159.272 634.492 158.887 634.492C158.47 634.492 158.105 634.595 157.794 634.8C157.485 635.003 157.247 635.268 157.078 635.596C156.912 635.921 156.829 636.274 156.829 636.655V637.525C156.829 638.035 156.919 638.469 157.098 638.827C157.28 639.185 157.534 639.459 157.858 639.648C158.183 639.833 158.563 639.926 158.997 639.926C159.279 639.926 159.535 639.886 159.767 639.807C159.999 639.724 160.2 639.601 160.369 639.439C160.538 639.277 160.667 639.076 160.757 638.837L162.164 639.091C162.051 639.505 161.849 639.868 161.557 640.18C161.269 640.488 160.906 640.728 160.468 640.901C160.034 641.07 159.539 641.154 158.982 641.154Z" fill="#F8FBFF" fill-opacity="0.9" shape-rendering="crispEdges"/>
</g>
<g opacity="0.9" filter="url(#filter10_d_16_468)">
<path d="M380.672 161.493C380.619 161.022 380.4 160.658 380.016 160.399C379.631 160.137 379.147 160.006 378.564 160.006C378.146 160.006 377.785 160.073 377.48 160.205C377.175 160.335 376.938 160.513 376.769 160.742C376.603 160.968 376.521 161.224 376.521 161.513C376.521 161.755 376.577 161.964 376.69 162.139C376.806 162.315 376.956 162.462 377.142 162.582C377.331 162.698 377.533 162.795 377.749 162.875C377.964 162.951 378.171 163.014 378.37 163.064L379.364 163.322C379.689 163.402 380.022 163.51 380.364 163.646C380.705 163.781 381.022 163.96 381.313 164.183C381.605 164.405 381.84 164.68 382.019 165.008C382.201 165.336 382.293 165.729 382.293 166.186C382.293 166.763 382.143 167.275 381.845 167.722C381.55 168.17 381.121 168.523 380.558 168.781C379.997 169.04 379.32 169.169 378.524 169.169C377.762 169.169 377.102 169.048 376.545 168.806C375.989 168.564 375.553 168.221 375.238 167.777C374.923 167.33 374.749 166.799 374.716 166.186H376.257C376.287 166.554 376.406 166.861 376.615 167.106C376.827 167.348 377.097 167.528 377.425 167.648C377.757 167.764 378.12 167.822 378.514 167.822C378.948 167.822 379.335 167.754 379.673 167.618C380.014 167.479 380.282 167.286 380.478 167.041C380.674 166.793 380.771 166.503 380.771 166.171C380.771 165.87 380.685 165.623 380.513 165.43C380.344 165.238 380.113 165.079 379.822 164.953C379.533 164.827 379.207 164.716 378.842 164.62L377.639 164.292C376.824 164.07 376.178 163.743 375.7 163.313C375.226 162.882 374.989 162.312 374.989 161.602C374.989 161.016 375.148 160.504 375.467 160.066C375.785 159.629 376.216 159.289 376.759 159.047C377.303 158.802 377.916 158.679 378.599 158.679C379.288 158.679 379.896 158.8 380.423 159.042C380.954 159.284 381.371 159.617 381.676 160.041C381.981 160.462 382.14 160.946 382.153 161.493H380.672Z" fill="#F8FBFF" fill-opacity="0.9" shape-rendering="crispEdges"/>
<path d="M387.226 169.154C386.487 169.154 385.85 168.987 385.317 168.652C384.786 168.314 384.379 167.848 384.094 167.255C383.809 166.662 383.666 165.982 383.666 165.217C383.666 164.441 383.812 163.757 384.104 163.163C384.395 162.567 384.806 162.101 385.336 161.766C385.867 161.432 386.492 161.264 387.211 161.264C387.791 161.264 388.308 161.372 388.762 161.587C389.216 161.799 389.582 162.098 389.861 162.482C390.142 162.867 390.31 163.316 390.363 163.83H388.916C388.836 163.472 388.654 163.163 388.369 162.905C388.087 162.646 387.71 162.517 387.236 162.517C386.821 162.517 386.458 162.626 386.147 162.845C385.839 163.061 385.598 163.369 385.426 163.77C385.254 164.168 385.167 164.638 385.167 165.182C385.167 165.739 385.252 166.219 385.421 166.624C385.59 167.028 385.829 167.341 386.137 167.563C386.448 167.785 386.815 167.896 387.236 167.896C387.517 167.896 387.773 167.845 388.001 167.742C388.233 167.636 388.427 167.485 388.583 167.29C388.742 167.094 388.853 166.859 388.916 166.584H390.363C390.31 167.078 390.149 167.518 389.881 167.906C389.612 168.294 389.252 168.599 388.802 168.821C388.354 169.043 387.829 169.154 387.226 169.154Z" fill="#F8FBFF" fill-opacity="0.9" shape-rendering="crispEdges"/>
<path d="M395.169 169.154C394.453 169.154 393.828 168.99 393.295 168.662C392.761 168.334 392.347 167.875 392.052 167.285C391.757 166.695 391.609 166.005 391.609 165.217C391.609 164.424 391.757 163.732 392.052 163.138C392.347 162.545 392.761 162.085 393.295 161.756C393.828 161.428 394.453 161.264 395.169 161.264C395.885 161.264 396.51 161.428 397.043 161.756C397.577 162.085 397.991 162.545 398.286 163.138C398.581 163.732 398.729 164.424 398.729 165.217C398.729 166.005 398.581 166.695 398.286 167.285C397.991 167.875 397.577 168.334 397.043 168.662C396.51 168.99 395.885 169.154 395.169 169.154ZM395.174 167.906C395.638 167.906 396.022 167.784 396.327 167.538C396.632 167.293 396.858 166.967 397.004 166.559C397.153 166.151 397.227 165.702 397.227 165.212C397.227 164.724 397.153 164.277 397.004 163.869C396.858 163.458 396.632 163.129 396.327 162.88C396.022 162.631 395.638 162.507 395.174 162.507C394.707 162.507 394.319 162.631 394.011 162.88C393.706 163.129 393.479 163.458 393.33 163.869C393.184 164.277 393.111 164.724 393.111 165.212C393.111 165.702 393.184 166.151 393.33 166.559C393.479 166.967 393.706 167.293 394.011 167.538C394.319 167.784 394.707 167.906 395.174 167.906Z" fill="#F8FBFF" fill-opacity="0.9" shape-rendering="crispEdges"/>
<path d="M400.388 169V161.364H401.825V162.577H401.904C402.044 162.166 402.289 161.843 402.64 161.607C402.995 161.369 403.396 161.249 403.843 161.249C403.936 161.249 404.045 161.253 404.171 161.259C404.301 161.266 404.402 161.274 404.475 161.284V162.706C404.415 162.689 404.309 162.671 404.156 162.651C404.004 162.628 403.852 162.616 403.699 162.616C403.348 162.616 403.035 162.691 402.759 162.84C402.488 162.986 402.272 163.19 402.113 163.452C401.954 163.71 401.874 164.005 401.874 164.337V169H400.388Z" fill="#F8FBFF" fill-opacity="0.9" shape-rendering="crispEdges"/>
<path d="M408.779 169.154C408.026 169.154 407.378 168.993 406.835 168.672C406.295 168.347 405.877 167.891 405.582 167.305C405.29 166.715 405.145 166.024 405.145 165.232C405.145 164.449 405.29 163.76 405.582 163.163C405.877 162.567 406.288 162.101 406.815 161.766C407.345 161.432 407.965 161.264 408.674 161.264C409.105 161.264 409.523 161.335 409.927 161.478C410.332 161.621 410.694 161.844 411.016 162.149C411.337 162.454 411.591 162.85 411.777 163.337C411.962 163.821 412.055 164.41 412.055 165.102V165.629H405.985V164.516H410.598C410.598 164.125 410.519 163.778 410.36 163.477C410.201 163.172 409.977 162.931 409.689 162.756C409.404 162.58 409.069 162.492 408.684 162.492C408.267 162.492 407.902 162.595 407.591 162.8C407.282 163.003 407.044 163.268 406.875 163.596C406.709 163.921 406.626 164.274 406.626 164.655V165.525C406.626 166.035 406.716 166.469 406.895 166.827C407.077 167.185 407.33 167.459 407.655 167.648C407.98 167.833 408.359 167.926 408.794 167.926C409.075 167.926 409.332 167.886 409.564 167.807C409.796 167.724 409.997 167.601 410.166 167.439C410.335 167.277 410.464 167.076 410.554 166.837L411.961 167.091C411.848 167.505 411.646 167.868 411.354 168.18C411.066 168.488 410.703 168.728 410.265 168.901C409.831 169.07 409.336 169.154 408.779 169.154Z" fill="#F8FBFF" fill-opacity="0.9" shape-rendering="crispEdges"/>
<path d="M421.044 161.364V162.557H416.728V161.364H421.044ZM417.912 169V160.479C417.912 160.001 418.016 159.605 418.225 159.29C418.434 158.972 418.71 158.735 419.055 158.58C419.4 158.42 419.774 158.341 420.179 158.341C420.477 158.341 420.732 158.366 420.944 158.415C421.156 158.462 421.314 158.505 421.417 158.545L421.069 159.748C420.999 159.728 420.909 159.705 420.8 159.678C420.691 159.648 420.558 159.634 420.402 159.634C420.041 159.634 419.783 159.723 419.627 159.902C419.474 160.081 419.398 160.339 419.398 160.678V169H417.912Z" fill="#F8FBFF" fill-opacity="0.9" shape-rendering="crispEdges"/>
<path d="M422.577 169V161.364H424.064V169H422.577ZM423.328 160.185C423.07 160.185 422.848 160.099 422.662 159.927C422.48 159.751 422.388 159.542 422.388 159.3C422.388 159.055 422.48 158.846 422.662 158.674C422.848 158.498 423.07 158.411 423.328 158.411C423.587 158.411 423.807 158.498 423.989 158.674C424.175 158.846 424.268 159.055 424.268 159.3C424.268 159.542 424.175 159.751 423.989 159.927C423.807 160.099 423.587 160.185 423.328 160.185Z" fill="#F8FBFF" fill-opacity="0.9" shape-rendering="crispEdges"/>
<path d="M429.628 161.364V162.557H425.457V161.364H429.628ZM426.576 159.534H428.062V166.758C428.062 167.046 428.105 167.263 428.192 167.409C428.278 167.552 428.389 167.649 428.525 167.702C428.664 167.752 428.815 167.777 428.977 167.777C429.096 167.777 429.201 167.769 429.29 167.752C429.38 167.736 429.449 167.722 429.499 167.712L429.768 168.94C429.681 168.973 429.559 169.007 429.4 169.04C429.241 169.076 429.042 169.096 428.803 169.099C428.412 169.106 428.047 169.036 427.709 168.891C427.371 168.745 427.098 168.519 426.889 168.214C426.68 167.91 426.576 167.527 426.576 167.066V159.534Z" fill="#F8FBFF" fill-opacity="0.9" shape-rendering="crispEdges"/>
</g>
<g opacity="0.9" filter="url(#filter11_d_16_468)">
<path d="M251.575 37.1293H250.024C249.964 36.7978 249.853 36.5062 249.691 36.2543C249.529 36.0024 249.33 35.7886 249.094 35.6129C248.859 35.4373 248.596 35.3047 248.304 35.2152C248.016 35.1257 247.709 35.081 247.384 35.081C246.798 35.081 246.272 35.2285 245.808 35.5234C245.348 35.8184 244.983 36.2509 244.714 36.821C244.449 37.3911 244.317 38.0871 244.317 38.9091C244.317 39.7377 244.449 40.437 244.714 41.0071C244.983 41.5772 245.349 42.008 245.813 42.2997C246.277 42.5914 246.799 42.7372 247.379 42.7372C247.701 42.7372 248.006 42.6941 248.294 42.608C248.586 42.5185 248.849 42.3875 249.085 42.2152C249.32 42.0428 249.519 41.8324 249.681 41.5838C249.847 41.3319 249.961 41.0436 250.024 40.7187L251.575 40.7237C251.492 41.2242 251.332 41.6849 251.093 42.1058C250.858 42.5234 250.554 42.8847 250.183 43.1896C249.815 43.4912 249.394 43.7249 248.92 43.8906C248.446 44.0563 247.929 44.1392 247.369 44.1392C246.488 44.1392 245.702 43.9304 245.013 43.5128C244.323 43.0919 243.78 42.4903 243.382 41.7081C242.988 40.9259 242.79 39.9929 242.79 38.9091C242.79 37.822 242.989 36.889 243.387 36.1101C243.785 35.3279 244.328 34.728 245.018 34.3104C245.707 33.8894 246.491 33.679 247.369 33.679C247.91 33.679 248.413 33.7569 248.881 33.9126C249.351 34.0651 249.774 34.2905 250.148 34.5888C250.523 34.8838 250.833 35.245 251.078 35.6726C251.323 36.0968 251.489 36.5824 251.575 37.1293Z" fill="#F8FBFF" fill-opacity="0.9" shape-rendering="crispEdges"/>
<path d="M256.511 44.1541C255.795 44.1541 255.17 43.9901 254.637 43.6619C254.103 43.3338 253.689 42.8748 253.394 42.2848C253.099 41.6948 252.951 41.0054 252.951 40.2166C252.951 39.4245 253.099 38.7318 253.394 38.1385C253.689 37.5452 254.103 37.0845 254.637 36.7564C255.17 36.4283 255.795 36.2642 256.511 36.2642C257.227 36.2642 257.851 36.4283 258.385 36.7564C258.919 37.0845 259.333 37.5452 259.628 38.1385C259.923 38.7318 260.07 39.4245 260.07 40.2166C260.07 41.0054 259.923 41.6948 259.628 42.2848C259.333 42.8748 258.919 43.3338 258.385 43.6619C257.851 43.9901 257.227 44.1541 256.511 44.1541ZM256.516 42.9062C256.98 42.9062 257.364 42.7836 257.669 42.5383C257.974 42.2931 258.199 41.9666 258.345 41.5589C258.494 41.1513 258.569 40.7022 258.569 40.2116C258.569 39.7244 258.494 39.277 258.345 38.8693C258.199 38.4583 257.974 38.1285 257.669 37.88C257.364 37.6314 256.98 37.5071 256.516 37.5071C256.048 37.5071 255.661 37.6314 255.352 37.88C255.048 38.1285 254.82 38.4583 254.671 38.8693C254.525 39.277 254.453 39.7244 254.453 40.2116C254.453 40.7022 254.525 41.1513 254.671 41.5589C254.82 41.9666 255.048 42.2931 255.352 42.5383C255.661 42.7836 256.048 42.9062 256.516 42.9062Z" fill="#F8FBFF" fill-opacity="0.9" shape-rendering="crispEdges"/>
<path d="M263.216 33.8182V44H261.73V33.8182H263.216Z" fill="#F8FBFF" fill-opacity="0.9" shape-rendering="crispEdges"/>
<path d="M266.703 33.8182V44H265.216V33.8182H266.703Z" fill="#F8FBFF" fill-opacity="0.9" shape-rendering="crispEdges"/>
<path d="M271.994 44.1541C271.241 44.1541 270.593 43.9934 270.05 43.6719C269.509 43.3471 269.092 42.8913 268.797 42.3047C268.505 41.7147 268.359 41.0237 268.359 40.2315C268.359 39.4493 268.505 38.7599 268.797 38.1633C269.092 37.5668 269.503 37.1011 270.03 36.7663C270.56 36.4316 271.18 36.2642 271.889 36.2642C272.32 36.2642 272.738 36.3355 273.142 36.478C273.546 36.6205 273.909 36.8442 274.231 37.1491C274.552 37.4541 274.806 37.8501 274.991 38.3374C275.177 38.8213 275.27 39.4096 275.27 40.1023V40.6293H269.2V39.5156H273.813C273.813 39.1245 273.734 38.7782 273.575 38.4766C273.415 38.1716 273.192 37.9313 272.903 37.7557C272.618 37.58 272.284 37.4922 271.899 37.4922C271.482 37.4922 271.117 37.5949 270.805 37.8004C270.497 38.0026 270.259 38.2678 270.089 38.5959C269.924 38.9207 269.841 39.2737 269.841 39.6548V40.5249C269.841 41.0353 269.93 41.4695 270.109 41.8274C270.292 42.1854 270.545 42.4588 270.87 42.6477C271.195 42.8333 271.574 42.9261 272.009 42.9261C272.29 42.9261 272.547 42.8864 272.779 42.8068C273.011 42.724 273.212 42.6013 273.381 42.4389C273.55 42.2765 273.679 42.076 273.768 41.8374L275.175 42.0909C275.063 42.5052 274.861 42.8681 274.569 43.1797C274.281 43.4879 273.918 43.7282 273.48 43.9006C273.046 44.0696 272.55 44.1541 271.994 44.1541Z" fill="#F8FBFF" fill-opacity="0.9" shape-rendering="crispEdges"/>
<path d="M280.136 44.1541C279.397 44.1541 278.76 43.9867 278.227 43.652C277.696 43.3139 277.289 42.8482 277.004 42.255C276.719 41.6617 276.576 40.9822 276.576 40.2166C276.576 39.441 276.722 38.7566 277.014 38.1633C277.305 37.5668 277.716 37.1011 278.247 36.7663C278.777 36.4316 279.402 36.2642 280.121 36.2642C280.701 36.2642 281.218 36.3719 281.672 36.5874C282.126 36.7995 282.492 37.0978 282.771 37.4822C283.052 37.8667 283.22 38.3158 283.273 38.8295H281.826C281.747 38.4716 281.564 38.1633 281.279 37.9048C280.998 37.6463 280.62 37.517 280.146 37.517C279.731 37.517 279.369 37.6264 279.057 37.8452C278.749 38.0606 278.508 38.3688 278.336 38.7699C278.164 39.1676 278.078 39.6383 278.078 40.1818C278.078 40.7386 278.162 41.2192 278.331 41.6236C278.5 42.0279 278.739 42.3411 279.047 42.5632C279.359 42.7853 279.725 42.8963 280.146 42.8963C280.427 42.8963 280.683 42.8449 280.911 42.7422C281.143 42.6361 281.337 42.4853 281.493 42.2898C281.652 42.0942 281.763 41.8589 281.826 41.5838H283.273C283.22 42.0776 283.059 42.5185 282.791 42.9062C282.522 43.294 282.163 43.599 281.712 43.821C281.264 44.0431 280.739 44.1541 280.136 44.1541Z" fill="#F8FBFF" fill-opacity="0.9" shape-rendering="crispEdges"/>
<path d="M288.427 36.3636V37.5568H284.256V36.3636H288.427ZM285.375 34.5341H286.861V41.7578C286.861 42.0462 286.904 42.2633 286.99 42.4091C287.077 42.5516 287.188 42.6494 287.323 42.7024C287.463 42.7521 287.614 42.777 287.776 42.777C287.895 42.777 288 42.7687 288.089 42.7521C288.179 42.7356 288.248 42.7223 288.298 42.7124L288.566 43.9403C288.48 43.9735 288.358 44.0066 288.198 44.0398C288.039 44.0762 287.841 44.0961 287.602 44.0994C287.211 44.1061 286.846 44.0365 286.508 43.8906C286.17 43.7448 285.897 43.5194 285.688 43.2145C285.479 42.9096 285.375 42.5267 285.375 42.066V34.5341Z" fill="#F8FBFF" fill-opacity="0.9" shape-rendering="crispEdges"/>
<path d="M293.777 36.3636H295.263V44.4972C295.263 45.0076 295.17 45.4384 294.985 45.7898C294.802 46.1411 294.531 46.4079 294.169 46.5902C293.811 46.7725 293.369 46.8636 292.842 46.8636C292.789 46.8636 292.739 46.8636 292.693 46.8636C292.643 46.8636 292.592 46.862 292.539 46.8587V45.581C292.585 45.581 292.627 45.581 292.663 45.581C292.696 45.581 292.734 45.581 292.777 45.581C293.129 45.581 293.382 45.4865 293.538 45.2976C293.697 45.112 293.777 44.8419 293.777 44.4872V36.3636ZM294.512 35.1854C294.254 35.1854 294.032 35.0992 293.846 34.9268C293.664 34.7512 293.573 34.5424 293.573 34.3004C293.573 34.0552 293.664 33.8463 293.846 33.674C294.032 33.4983 294.254 33.4105 294.512 33.4105C294.771 33.4105 294.991 33.4983 295.174 33.674C295.359 33.8463 295.452 34.0552 295.452 34.3004C295.452 34.5424 295.359 34.7512 295.174 34.9268C294.991 35.0992 294.771 35.1854 294.512 35.1854Z" fill="#F8FBFF" fill-opacity="0.9" shape-rendering="crispEdges"/>
<path d="M300.48 44.1541C299.764 44.1541 299.139 43.9901 298.605 43.6619C298.072 43.3338 297.657 42.8748 297.362 42.2848C297.067 41.6948 296.92 41.0054 296.92 40.2166C296.92 39.4245 297.067 38.7318 297.362 38.1385C297.657 37.5452 298.072 37.0845 298.605 36.7564C299.139 36.4283 299.764 36.2642 300.48 36.2642C301.195 36.2642 301.82 36.4283 302.354 36.7564C302.887 37.0845 303.302 37.5452 303.597 38.1385C303.892 38.7318 304.039 39.4245 304.039 40.2166C304.039 41.0054 303.892 41.6948 303.597 42.2848C303.302 42.8748 302.887 43.3338 302.354 43.6619C301.82 43.9901 301.195 44.1541 300.48 44.1541ZM300.485 42.9062C300.949 42.9062 301.333 42.7836 301.638 42.5383C301.943 42.2931 302.168 41.9666 302.314 41.5589C302.463 41.1513 302.538 40.7022 302.538 40.2116C302.538 39.7244 302.463 39.277 302.314 38.8693C302.168 38.4583 301.943 38.1285 301.638 37.88C301.333 37.6314 300.949 37.5071 300.485 37.5071C300.017 37.5071 299.629 37.6314 299.321 37.88C299.016 38.1285 298.789 38.4583 298.64 38.8693C298.494 39.277 298.421 39.7244 298.421 40.2116C298.421 40.7022 298.494 41.1513 298.64 41.5589C298.789 41.9666 299.016 42.2931 299.321 42.5383C299.629 42.7836 300.017 42.9062 300.485 42.9062Z" fill="#F8FBFF" fill-opacity="0.9" shape-rendering="crispEdges"/>
<path d="M305.818 44V33.8182H307.304V37.6016H307.394C307.48 37.4425 307.604 37.2585 307.767 37.0497C307.929 36.8409 308.154 36.6586 308.443 36.5028C308.731 36.3437 309.112 36.2642 309.586 36.2642C310.203 36.2642 310.753 36.42 311.237 36.7315C311.721 37.0431 312.1 37.4922 312.375 38.0788C312.654 38.6655 312.793 39.3714 312.793 40.1967C312.793 41.022 312.655 41.7296 312.38 42.3196C312.105 42.9062 311.727 43.3587 311.247 43.6768C310.766 43.9917 310.218 44.1491 309.601 44.1491C309.137 44.1491 308.758 44.0713 308.463 43.9155C308.171 43.7597 307.942 43.5774 307.777 43.3686C307.611 43.1598 307.483 42.9742 307.394 42.8118H307.27V44H305.818ZM307.274 40.1818C307.274 40.7187 307.352 41.1894 307.508 41.5937C307.664 41.9981 307.889 42.3146 308.184 42.5433C308.479 42.7687 308.841 42.8814 309.268 42.8814C309.712 42.8814 310.083 42.7637 310.382 42.5284C310.68 42.2898 310.905 41.9666 311.058 41.5589C311.214 41.1513 311.292 40.6922 311.292 40.1818C311.292 39.678 311.215 39.2256 311.063 38.8246C310.914 38.4235 310.688 38.107 310.387 37.875C310.088 37.643 309.716 37.527 309.268 37.527C308.837 37.527 308.473 37.638 308.174 37.8601C307.879 38.0821 307.656 38.392 307.503 38.7898C307.351 39.1875 307.274 39.6515 307.274 40.1818Z" fill="#F8FBFF" fill-opacity="0.9" shape-rendering="crispEdges"/>
<path d="M320.184 38.228L318.837 38.4666C318.781 38.2943 318.691 38.1302 318.569 37.9744C318.449 37.8187 318.287 37.691 318.081 37.5916C317.876 37.4922 317.619 37.4425 317.311 37.4425C316.89 37.4425 316.539 37.5369 316.257 37.7258C315.975 37.9115 315.834 38.1517 315.834 38.4467C315.834 38.7019 315.929 38.9074 316.118 39.0632C316.307 39.219 316.612 39.3466 317.032 39.446L318.246 39.7244C318.948 39.8868 319.472 40.1371 319.817 40.4751C320.161 40.8132 320.334 41.2524 320.334 41.7926C320.334 42.25 320.201 42.6577 319.936 43.0156C319.674 43.3703 319.308 43.6487 318.837 43.8508C318.37 44.053 317.828 44.1541 317.211 44.1541C316.356 44.1541 315.659 43.9718 315.118 43.6072C314.578 43.2393 314.247 42.7173 314.124 42.0412L315.561 41.8224C315.65 42.197 315.834 42.4803 316.113 42.6726C316.391 42.8615 316.754 42.956 317.202 42.956C317.689 42.956 318.078 42.8549 318.37 42.6527C318.662 42.4472 318.807 42.197 318.807 41.902C318.807 41.6633 318.718 41.4628 318.539 41.3004C318.363 41.138 318.093 41.0154 317.729 40.9325L316.436 40.6491C315.723 40.4867 315.196 40.2282 314.855 39.8736C314.517 39.5189 314.348 39.0698 314.348 38.5263C314.348 38.0755 314.474 37.6811 314.726 37.343C314.978 37.005 315.326 36.7415 315.77 36.5526C316.214 36.3603 316.723 36.2642 317.296 36.2642C318.121 36.2642 318.771 36.4432 319.245 36.8011C319.719 37.1558 320.032 37.6314 320.184 38.228Z" fill="#F8FBFF" fill-opacity="0.9" shape-rendering="crispEdges"/>
</g>
<g filter="url(#filter12_f_16_468)">
<circle cx="252" cy="67" r="2" fill="white" fill-opacity="0.75"/>
</g>
<g filter="url(#filter13_f_16_468)">
<circle cx="310" cy="122" r="2" fill="white" fill-opacity="0.75"/>
</g>
<g filter="url(#filter14_f_16_468)">
<circle cx="354" cy="208" r="2" fill="white" fill-opacity="0.75"/>
</g>
<g filter="url(#filter15_f_16_468)">
<circle cx="363" cy="271" r="2" fill="white" fill-opacity="0.75"/>
</g>
<g filter="url(#filter16_f_16_468)">
<circle cx="360" cy="363" r="2" fill="white" fill-opacity="0.75"/>
</g>
<g filter="url(#filter17_f_16_468)">
<circle cx="277" cy="531" r="2" fill="white" fill-opacity="0.75"/>
</g>
<g filter="url(#filter18_f_16_468)">
<circle cx="179" cy="594" r="2" fill="white" fill-opacity="0.75"/>
</g>
<g filter="url(#filter19_f_16_468)">
<circle cx="262" cy="544" r="2" fill="white" fill-opacity="0.75"/>
</g>
<path d="M58 10C70.663 7.93608 146.297 22.8325 166.5 34" stroke="white" stroke-opacity="0.18"/>
</g>
<defs>
<filter id="filter0_f_16_468" x="75.4995" y="51.4999" width="294.488" height="588.501" filterUnits="userSpaceOnUse" color-interpolation-filters="sRGB">
<feFlood flood-opacity="0" result="BackgroundImageFix"/>
<feBlend mode="normal" in="SourceGraphic" in2="BackgroundImageFix" result="shape"/>
<feGaussianBlur stdDeviation="2" result="effect1_foregroundBlur_16_468"/>
</filter>
<filter id="filter1_f_16_468" x="78" y="613" width="30" height="30" filterUnits="userSpaceOnUse" color-interpolation-filters="sRGB">
<feFlood flood-opacity="0" result="BackgroundImageFix"/>
<feBlend mode="normal" in="SourceGraphic" in2="BackgroundImageFix" result="shape"/>
<feGaussianBlur stdDeviation="5" result="effect1_foregroundBlur_16_468"/>
</filter>
<filter id="filter2_d_16_468" x="153.5" y="1.5" width="99" height="99" filterUnits="userSpaceOnUse" color-interpolation-filters="sRGB">
<feFlood flood-opacity="0" result="BackgroundImageFix"/>
<feColorMatrix in="SourceAlpha" type="matrix" values="0 0 0 0 0 0 0 0 0 0 0 0 0 0 0 0 0 0 127 0" result="hardAlpha"/>
<feOffset dy="8"/>
<feGaussianBlur stdDeviation="10"/>
<feComposite in2="hardAlpha" operator="out"/>
<feColorMatrix type="matrix" values="0 0 0 0 0 0 0 0 0 0 0 0 0 0 0 0 0 0 0.15 0"/>
<feBlend mode="normal" in2="BackgroundImageFix" result="effect1_dropShadow_16_468"/>
<feBlend mode="normal" in="SourceGraphic" in2="effect1_dropShadow_16_468" result="shape"/>
</filter>
<filter id="filter3_d_16_468" x="285" y="124" width="98" height="98" filterUnits="userSpaceOnUse" color-interpolation-filters="sRGB">
<feFlood flood-opacity="0" result="BackgroundImageFix"/>
<feColorMatrix in="SourceAlpha" type="matrix" values="0 0 0 0 0 0 0 0 0 0 0 0 0 0 0 0 0 0 127 0" result="hardAlpha"/>
<feOffset dy="8"/>
<feGaussianBlur stdDeviation="10"/>
<feComposite in2="hardAlpha" operator="out"/>
<feColorMatrix type="matrix" values="0 0 0 0 0 0 0 0 0 0 0 0 0 0 0 0 0 0 0.15 0"/>
<feBlend mode="normal" in2="BackgroundImageFix" result="effect1_dropShadow_16_468"/>
<feBlend mode="normal" in="SourceGraphic" in2="effect1_dropShadow_16_468" result="shape"/>
</filter>
<filter id="filter4_d_16_468" x="314" y="276" width="98" height="98" filterUnits="userSpaceOnUse" color-interpolation-filters="sRGB">
<feFlood flood-opacity="0" result="BackgroundImageFix"/>
<feColorMatrix in="SourceAlpha" type="matrix" values="0 0 0 0 0 0 0 0 0 0 0 0 0 0 0 0 0 0 127 0" result="hardAlpha"/>
<feOffset dy="8"/>
<feGaussianBlur stdDeviation="10"/>
<feComposite in2="hardAlpha" operator="out"/>
<feColorMatrix type="matrix" values="0 0 0 0 0 0 0 0 0 0 0 0 0 0 0 0 0 0 0.15 0"/>
<feBlend mode="normal" in2="BackgroundImageFix" result="effect1_dropShadow_16_468"/>
<feBlend mode="normal" in="SourceGraphic" in2="effect1_dropShadow_16_468" result="shape"/>
</filter>
<filter id="filter5_d_16_468" x="171.5" y="526.5" width="99" height="99" filterUnits="userSpaceOnUse" color-interpolation-filters="sRGB">
<feFlood flood-opacity="0" result="BackgroundImageFix"/>
<feColorMatrix in="SourceAlpha" type="matrix" values="0 0 0 0 0 0 0 0 0 0 0 0 0 0 0 0 0 0 127 0" result="hardAlpha"/>
<feOffset dy="8"/>
<feGaussianBlur stdDeviation="10"/>
<feComposite in2="hardAlpha" operator="out"/>
<feColorMatrix type="matrix" values="0 0 0 0 0 0 0 0 0 0 0 0 0 0 0 0 0 0 0.15 0"/>
<feBlend mode="normal" in2="BackgroundImageFix" result="effect1_dropShadow_16_468"/>
<feBlend mode="normal" in="SourceGraphic" in2="effect1_dropShadow_16_468" result="shape"/>
</filter>
<filter id="filter6_d_16_468" x="-2.5" y="585.5" width="99" height="99" filterUnits="userSpaceOnUse" color-interpolation-filters="sRGB">
<feFlood flood-opacity="0" result="BackgroundImageFix"/>
<feColorMatrix in="SourceAlpha" type="matrix" values="0 0 0 0 0 0 0 0 0 0 0 0 0 0 0 0 0 0 127 0" result="hardAlpha"/>
<feOffset dy="8"/>
<feGaussianBlur stdDeviation="10"/>
<feComposite in2="hardAlpha" operator="out"/>
<feColorMatrix type="matrix" values="0 0 0 0 0 0 0 0 0 0 0 0 0 0 0 0 0 0 0.15 0"/>
<feBlend mode="normal" in2="BackgroundImageFix" result="effect1_dropShadow_16_468"/>
<feBlend mode="normal" in="SourceGraphic" in2="effect1_dropShadow_16_468" result="shape"/>
</filter>
<filter id="filter7_d_16_468" x="257.616" y="560.341" width="85.4995" height="19.5227" filterUnits="userSpaceOnUse" color-interpolation-filters="sRGB">
<feFlood flood-opacity="0" result="BackgroundImageFix"/>
<feColorMatrix in="SourceAlpha" type="matrix" values="0 0 0 0 0 0 0 0 0 0 0 0 0 0 0 0 0 0 127 0" result="hardAlpha"/>
<feOffset dy="1"/>
<feGaussianBlur stdDeviation="1.5"/>
<feComposite in2="hardAlpha" operator="out"/>
<feColorMatrix type="matrix" values="0 0 0 0 0.0627451 0 0 0 0 0.137255 0 0 0 0 0.235294 0 0 0 0.38 0"/>
<feBlend mode="normal" in2="BackgroundImageFix" result="effect1_dropShadow_16_468"/>
<feBlend mode="normal" in="SourceGraphic" in2="effect1_dropShadow_16_468" result="shape"/>
</filter>
<filter id="filter8_d_16_468" x="404.348" y="298.411" width="62.0423" height="34.7436" filterUnits="userSpaceOnUse" color-interpolation-filters="sRGB">
<feFlood flood-opacity="0" result="BackgroundImageFix"/>
<feColorMatrix in="SourceAlpha" type="matrix" values="0 0 0 0 0 0 0 0 0 0 0 0 0 0 0 0 0 0 127 0" result="hardAlpha"/>
<feOffset dy="1"/>
<feGaussianBlur stdDeviation="1.5"/>
<feComposite in2="hardAlpha" operator="out"/>
<feColorMatrix type="matrix" values="0 0 0 0 0.0627451 0 0 0 0 0.137255 0 0 0 0 0.235294 0 0 0 0.38 0"/>
<feBlend mode="normal" in2="BackgroundImageFix" result="effect1_dropShadow_16_468"/>
<feBlend mode="normal" in="SourceGraphic" in2="effect1_dropShadow_16_468" result="shape"/>
</filter>
<filter id="filter9_d_16_468" x="85.348" y="610.411" width="79.9102" height="34.7436" filterUnits="userSpaceOnUse" color-interpolation-filters="sRGB">
<feFlood flood-opacity="0" result="BackgroundImageFix"/>
<feColorMatrix in="SourceAlpha" type="matrix" values="0 0 0 0 0 0 0 0 0 0 0 0 0 0 0 0 0 0 127 0" result="hardAlpha"/>
<feOffset dy="1"/>
<feGaussianBlur stdDeviation="1.5"/>
<feComposite in2="hardAlpha" operator="out"/>
<feColorMatrix type="matrix" values="0 0 0 0 0.0627451 0 0 0 0 0.137255 0 0 0 0 0.235294 0 0 0 0.38 0"/>
<feBlend mode="normal" in2="BackgroundImageFix" result="effect1_dropShadow_16_468"/>
<feBlend mode="normal" in="SourceGraphic" in2="effect1_dropShadow_16_468" result="shape"/>
</filter>
<filter id="filter10_d_16_468" x="371.716" y="156.341" width="61.0517" height="16.8281" filterUnits="userSpaceOnUse" color-interpolation-filters="sRGB">
<feFlood flood-opacity="0" result="BackgroundImageFix"/>
<feColorMatrix in="SourceAlpha" type="matrix" values="0 0 0 0 0 0 0 0 0 0 0 0 0 0 0 0 0 0 127 0" result="hardAlpha"/>
<feOffset dy="1"/>
<feGaussianBlur stdDeviation="1.5"/>
<feComposite in2="hardAlpha" operator="out"/>
<feColorMatrix type="matrix" values="0 0 0 0 0.0627451 0 0 0 0 0.137255 0 0 0 0 0.235294 0 0 0 0.38 0"/>
<feBlend mode="normal" in2="BackgroundImageFix" result="effect1_dropShadow_16_468"/>
<feBlend mode="normal" in="SourceGraphic" in2="effect1_dropShadow_16_468" result="shape"/>
</filter>
<filter id="filter11_d_16_468" x="239.79" y="31.4105" width="83.5432" height="19.4531" filterUnits="userSpaceOnUse" color-interpolation-filters="sRGB">
<feFlood flood-opacity="0" result="BackgroundImageFix"/>
<feColorMatrix in="SourceAlpha" type="matrix" values="0 0 0 0 0 0 0 0 0 0 0 0 0 0 0 0 0 0 127 0" result="hardAlpha"/>
<feOffset dy="1"/>
<feGaussianBlur stdDeviation="1.5"/>
<feComposite in2="hardAlpha" operator="out"/>
<feColorMatrix type="matrix" values="0 0 0 0 0.0627451 0 0 0 0 0.137255 0 0 0 0 0.235294 0 0 0 0.38 0"/>
<feBlend mode="normal" in2="BackgroundImageFix" result="effect1_dropShadow_16_468"/>
<feBlend mode="normal" in="SourceGraphic" in2="effect1_dropShadow_16_468" result="shape"/>
</filter>
<filter id="filter12_f_16_468" x="246" y="61" width="12" height="12" filterUnits="userSpaceOnUse" color-interpolation-filters="sRGB">
<feFlood flood-opacity="0" result="BackgroundImageFix"/>
<feBlend mode="normal" in="SourceGraphic" in2="BackgroundImageFix" result="shape"/>
<feGaussianBlur stdDeviation="2" result="effect1_foregroundBlur_16_468"/>
</filter>
<filter id="filter13_f_16_468" x="304" y="116" width="12" height="12" filterUnits="userSpaceOnUse" color-interpolation-filters="sRGB">
<feFlood flood-opacity="0" result="BackgroundImageFix"/>
<feBlend mode="normal" in="SourceGraphic" in2="BackgroundImageFix" result="shape"/>
<feGaussianBlur stdDeviation="2" result="effect1_foregroundBlur_16_468"/>
</filter>
<filter id="filter14_f_16_468" x="348" y="202" width="12" height="12" filterUnits="userSpaceOnUse" color-interpolation-filters="sRGB">
<feFlood flood-opacity="0" result="BackgroundImageFix"/>
<feBlend mode="normal" in="SourceGraphic" in2="BackgroundImageFix" result="shape"/>
<feGaussianBlur stdDeviation="2" result="effect1_foregroundBlur_16_468"/>
</filter>
<filter id="filter15_f_16_468" x="357" y="265" width="12" height="12" filterUnits="userSpaceOnUse" color-interpolation-filters="sRGB">
<feFlood flood-opacity="0" result="BackgroundImageFix"/>
<feBlend mode="normal" in="SourceGraphic" in2="BackgroundImageFix" result="shape"/>
<feGaussianBlur stdDeviation="2" result="effect1_foregroundBlur_16_468"/>
</filter>
<filter id="filter16_f_16_468" x="354" y="357" width="12" height="12" filterUnits="userSpaceOnUse" color-interpolation-filters="sRGB">
<feFlood flood-opacity="0" result="BackgroundImageFix"/>
<feBlend mode="normal" in="SourceGraphic" in2="BackgroundImageFix" result="shape"/>
<feGaussianBlur stdDeviation="2" result="effect1_foregroundBlur_16_468"/>
</filter>
<filter id="filter17_f_16_468" x="271" y="525" width="12" height="12" filterUnits="userSpaceOnUse" color-interpolation-filters="sRGB">
<feFlood flood-opacity="0" result="BackgroundImageFix"/>
<feBlend mode="normal" in="SourceGraphic" in2="BackgroundImageFix" result="shape"/>
<feGaussianBlur stdDeviation="2" result="effect1_foregroundBlur_16_468"/>
</filter>
<filter id="filter18_f_16_468" x="173" y="588" width="12" height="12" filterUnits="userSpaceOnUse" color-interpolation-filters="sRGB">
<feFlood flood-opacity="0" result="BackgroundImageFix"/>
<feBlend mode="normal" in="SourceGraphic" in2="BackgroundImageFix" result="shape"/>
<feGaussianBlur stdDeviation="2" result="effect1_foregroundBlur_16_468"/>
</filter>
<filter id="filter19_f_16_468" x="256" y="538" width="12" height="12" filterUnits="userSpaceOnUse" color-interpolation-filters="sRGB">
<feFlood flood-opacity="0" result="BackgroundImageFix"/>
<feBlend mode="normal" in="SourceGraphic" in2="BackgroundImageFix" result="shape"/>
<feGaussianBlur stdDeviation="2" result="effect1_foregroundBlur_16_468"/>
</filter>
<clipPath id="clip0_16_468">
<rect width="500" height="680" fill="white"/>
</clipPath>
</defs>
</svg>
